<svg width="20" height="20" viewBox="0 0 20 20" fill="none" xmlns="http://www.w3.org/2000/svg">
<path d="M18.7462 20C8.0825 20.015 -0.0112383 11.825 1.17134e-05 1.25375C1.17134e-05 0.562499 0.560011 0 1.25001 0H4.55001C5.16876 0 5.69501 0.455 5.78626 1.0675C6.00388 2.53632 6.43116 3.9663 7.055 5.31374L7.18375 5.59124C7.27024 5.77798 7.28884 5.98905 7.23636 6.18803C7.18387 6.38702 7.06359 6.56145 6.89625 6.68124C5.87376 7.41124 5.48376 8.87999 6.28001 10.025C7.27875 11.4625 8.5375 12.7225 9.975 13.7212C11.1212 14.5162 12.59 14.1262 13.3187 13.105C13.4384 12.9371 13.613 12.8164 13.8123 12.7637C14.0115 12.711 14.223 12.7295 14.41 12.8162L14.6862 12.9437C16.0337 13.5687 17.4637 13.9962 18.9325 14.2137C19.545 14.305 20 14.8312 20 15.4512V18.75C20 18.9142 19.9676 19.0769 19.9047 19.2286C19.8418 19.3804 19.7496 19.5182 19.6334 19.6343C19.5172 19.7504 19.3793 19.8424 19.2275 19.9052C19.0757 19.9679 18.913 20.0001 18.7487 20H18.7462Z" fill="black"/>
</svg>
