<svg width="296" height="59" viewBox="0 0 296 59" fill="none" xmlns="http://www.w3.org/2000/svg">
<path d="M93.4364 39.973C93.4364 40.4665 93.0006 40.9052 92.5102 40.9052H0.926192C0.435855 40.9052 0 40.5213 0 39.973V32.4609C0 31.9674 0.381373 31.5288 0.926192 31.5288H92.5647C93.055 31.5288 93.4909 31.9126 93.4909 32.4609V39.973H93.4364Z" fill="#FAAE2D"/>
<path d="M93.4907 32.0223C93.4907 32.6255 93.0003 33.119 92.401 33.119H1.1439C0.544597 33.119 0.0542603 32.6255 0.0542603 32.0223V2.35782C0.0542603 1.75466 0.544597 1.26117 1.1439 1.26117H92.4555C93.0548 1.26117 93.5451 1.75466 93.5451 2.35782V32.0223H93.4907Z" fill="#231F20"/>
<path d="M89.7317 30.9257H3.81374C3.15995 30.9257 2.66962 30.3774 2.66962 29.7742V4.55118C2.66962 3.89318 3.21444 3.39969 3.81374 3.39969H89.7317C90.3854 3.39969 90.8758 3.94802 90.8758 4.55118V29.7742C90.9303 30.4322 90.3854 30.9257 89.7317 30.9257ZM3.81374 3.50935C3.26892 3.50935 2.83306 3.94802 2.83306 4.49634V29.7194C2.83306 30.2677 3.26892 30.7064 3.81374 30.7064H89.7317C90.2765 30.7064 90.7123 30.2677 90.7123 29.7194V4.49634C90.7123 3.94802 90.2765 3.50935 89.7317 3.50935H3.81374V3.50935Z" fill="#D0D1D2"/>
<path d="M21.3569 19.9042C21.3569 20.4526 20.921 20.8912 20.3762 20.8912H6.8102C6.26538 20.8912 5.82953 20.4526 5.82953 19.9042V7.29271C5.82953 6.74439 6.26538 6.30573 6.8102 6.30573H20.3762C20.921 6.30573 21.3569 6.74439 21.3569 7.29271V19.9042V19.9042Z" fill="#FAAE2D"/>
<path d="M12.095 14.2017C11.7136 14.3113 11.1688 14.421 10.6784 14.421C8.06332 14.421 7.08264 12.5019 7.08264 10.9117C7.08264 9.43122 8.1178 7.45724 10.7329 7.45724C12.8577 7.45724 14.3287 8.77323 14.3287 10.8569C14.3287 12.447 13.3481 13.434 12.8032 13.763L14.6011 14.6952C16.4535 15.6822 17.6521 15.737 18.2514 15.737C18.6873 15.737 19.3411 15.6822 19.9948 15.408C20.0493 15.408 20.1038 15.3532 20.1038 15.3532C20.1583 15.3532 20.1583 15.408 20.1583 15.408C20.1583 15.4628 20.1038 15.4628 20.0493 15.5177C19.5045 15.7918 18.5238 16.1756 17.2163 16.1756C15.8542 16.1756 14.928 15.8466 13.457 14.9693L12.095 14.2017ZM13.0756 11.0762C13.0756 8.93773 11.7681 7.89591 10.515 7.89591C9.37088 7.89591 8.33572 8.66356 8.33572 10.6924C8.33572 12.8309 9.58881 13.9823 11.0598 13.9823C11.7681 14.0372 13.0756 13.7082 13.0756 11.0762Z" fill="white"/>
<path d="M15.8542 14.2017C15.6908 14.1469 15.6908 14.092 15.6908 13.8727C15.6908 13.3792 15.7453 12.8309 15.7453 12.7212C15.7453 12.6116 15.7998 12.5019 15.8542 12.5019C15.9087 12.5019 15.9632 12.5567 15.9632 12.6664C15.9632 12.7761 16.0177 12.9954 16.0177 13.1051C16.2356 13.7631 16.726 13.9824 17.2708 13.9824C18.088 13.9824 18.4694 13.4341 18.4694 12.9406C18.4694 12.5019 18.3604 12.0632 17.5977 11.5149L17.2163 11.1859C16.2356 10.4183 15.9087 9.8151 15.9087 9.04744C15.9087 8.06045 16.726 7.34763 17.979 7.34763C18.5783 7.34763 18.9052 7.45729 19.1776 7.51212C19.2321 7.51212 19.2866 7.56696 19.2866 7.62179C19.2866 7.73145 19.2321 8.00562 19.2321 8.71844C19.2321 8.93777 19.2321 8.99261 19.1232 8.99261C19.0687 8.99261 19.0142 8.93777 19.0142 8.82811C19.0142 8.77328 18.9597 8.44428 18.7963 8.22495C18.6873 8.06045 18.4149 7.78629 17.8156 7.78629C17.1618 7.78629 16.7804 8.17012 16.7804 8.71844C16.7804 9.10227 16.9984 9.43127 17.7066 9.9796L17.979 10.1441C19.0142 10.9666 19.45 11.5697 19.45 12.3922C19.45 12.8857 19.2321 13.5437 18.6328 13.9276C18.197 14.2017 17.7066 14.3114 17.2163 14.3114C16.617 14.4759 16.2356 14.421 15.8542 14.2017Z" fill="white"/>
<path d="M20.1038 19.301C20.1038 19.4655 17.2163 19.63 13.675 19.63C10.1336 19.63 7.24609 19.4655 7.24609 19.301C7.24609 19.1365 10.1336 18.972 13.675 18.972C17.2163 18.972 20.1038 19.1365 20.1038 19.301Z" fill="#808184"/>
<path d="M6.75573 26.5939V28.2389L7.40951 28.3486V28.5131H5.61161V28.3486L6.10195 28.2389V24.4554L5.55713 24.3458V24.1813H7.40951C7.7364 24.1813 7.95433 24.1813 8.17226 24.2361C8.39019 24.2909 8.55363 24.3458 8.6626 24.4554C8.77156 24.5651 8.88052 24.6748 8.93501 24.8393C8.98949 25.0038 8.98949 25.1683 8.98949 25.3328C8.98949 25.4973 8.98949 25.6618 8.93501 25.7714C8.88052 25.8811 8.82604 25.9908 8.71708 26.1004C8.6626 26.2101 8.55363 26.2649 8.44467 26.3746C8.33571 26.4294 8.22674 26.4843 8.11778 26.5391L9.2619 28.2937L9.75223 28.4034V28.5131H8.71708L7.51848 26.5939H6.75573ZM8.39019 25.3876C8.39019 25.2231 8.39019 25.0586 8.33571 24.9489C8.28122 24.8393 8.22674 24.7296 8.11778 24.6748C8.00881 24.6199 7.89985 24.5651 7.79089 24.5103C7.68192 24.4554 7.51848 24.4554 7.30055 24.4554H6.75573V26.3198H7.30055C7.51848 26.3198 7.68192 26.3198 7.79089 26.2649C7.89985 26.2101 8.00881 26.1553 8.11778 26.1004C8.22674 26.0456 8.28122 25.9359 8.28122 25.8263C8.39019 25.6618 8.39019 25.5521 8.39019 25.3876Z" fill="white"/>
<path d="M11.4412 28.3485V28.513H10.0247V28.3485L10.515 28.2389L11.986 24.1264H12.5853L14.1108 28.2389L14.6556 28.3485V28.513H12.8577V28.3485L13.457 28.2389L13.0212 26.9777H11.3322L10.8964 28.2389L11.4412 28.3485ZM12.1495 24.6199L11.3867 26.7035H12.8577L12.1495 24.6199Z" fill="white"/>
<path d="M15.2004 28.513V28.3485L15.9087 28.2389V24.4554H15.7453C15.4729 24.4554 15.2549 24.4554 15.037 24.4554C14.8736 24.4554 14.7101 24.5102 14.6556 24.5102L14.5467 25.1682H14.3287V24.1264H18.088V25.1682H17.8701L17.7611 24.5102C17.7066 24.5102 17.6521 24.5102 17.5976 24.5102C17.5432 24.5102 17.4342 24.5102 17.3252 24.5102C17.2163 24.5102 17.1073 24.5102 16.9983 24.5102C16.8894 24.5102 16.7804 24.5102 16.617 24.5102H16.4535V28.2937L17.1618 28.4034V28.513H15.2004Z" fill="white"/>
<path d="M18.5238 28.3486L19.0686 28.2389V24.4554L18.5238 24.3458V24.1813H21.7927V25.2231H21.5748L21.4658 24.5103C21.4113 24.5103 21.3024 24.5103 21.1934 24.5103C21.0845 24.5103 20.9755 24.5103 20.921 24.5103C20.812 24.5103 20.7031 24.5103 20.6486 24.5103C20.5396 24.5103 20.4852 24.5103 20.4307 24.5103H19.7224V26.2101H20.8665L20.9755 25.7166H21.1934V27.0326H20.9755L20.8665 26.4842H19.7224V28.2389H20.5941C20.7031 28.2389 20.8665 28.2389 20.9755 28.2389C21.0845 28.2389 21.1934 28.2389 21.3024 28.2389C21.4113 28.2389 21.4658 28.2389 21.5203 28.2389C21.5748 28.2389 21.6293 28.2389 21.6838 28.2389L21.8472 27.4164H22.0651L21.9562 28.5131H18.5238V28.3486Z" fill="white"/>
<path d="M24.6803 24.1813C25.0617 24.1813 25.3341 24.2361 25.661 24.2909C25.9334 24.3458 26.2058 24.5103 26.3692 24.6748C26.5872 24.8393 26.7506 25.0586 26.8596 25.3328C26.9685 25.6069 27.023 25.9359 27.023 26.3198C27.023 26.6487 26.9685 26.9777 26.9141 27.2519C26.8051 27.5261 26.6961 27.7454 26.5327 27.9647C26.3692 28.1292 26.0968 28.2937 25.8244 28.4034C25.552 28.5131 25.2251 28.5679 24.8437 28.5679C24.7348 28.5679 24.5713 28.5679 24.4624 28.5679C24.2989 28.5679 24.19 28.5679 24.0265 28.5679C23.8631 28.5679 23.7541 28.5679 23.6451 28.5679C23.5362 28.5679 23.4272 28.5679 23.3183 28.5679H22.7734V28.4034L23.3183 28.2937V24.5103L22.7734 24.4006V24.2361H24.6803V24.1813ZM26.3692 26.3198C26.3692 25.9908 26.3148 25.7166 26.2603 25.4973C26.1513 25.2779 26.0424 25.0586 25.8789 24.9489C25.7155 24.7844 25.4975 24.6748 25.2796 24.6199C25.0617 24.5651 24.7893 24.5103 24.5169 24.5103H23.9176V28.2389C23.972 28.2389 24.0265 28.2389 24.1355 28.2389C24.19 28.2389 24.2989 28.2389 24.3534 28.2389C24.4079 28.2389 24.5169 28.2389 24.5713 28.2389H24.7893C25.0617 28.2389 25.2796 28.1841 25.4975 28.1292C25.7155 28.0744 25.8244 27.9099 25.9879 27.7454C26.0968 27.5809 26.2058 27.3616 26.2603 27.1422C26.3148 26.9229 26.3692 26.6487 26.3692 26.3198Z" fill="white"/>
<path d="M30.6733 26.5391V28.2389L31.3815 28.3486V28.5131H29.5292V28.3486L30.0195 28.2389V24.4554L29.4747 24.3458V24.1813H32.6891V25.2231H32.4712L32.3622 24.5103C32.3077 24.5103 32.1988 24.5103 32.0898 24.5103C31.9808 24.5103 31.8719 24.5103 31.8174 24.5103C31.7084 24.5103 31.5995 24.5103 31.545 24.5103C31.436 24.5103 31.3815 24.5103 31.3271 24.5103H30.6188V26.3198H31.8719L31.9808 25.8263H32.1988V27.1422H31.9808L31.8719 26.5939H30.6733V26.5391Z" fill="white"/>
<path d="M33.3974 26.3197C33.3974 25.9359 33.4519 25.6069 33.5608 25.3327C33.6698 25.0586 33.7788 24.8392 33.9422 24.6199C34.1057 24.4554 34.3236 24.2909 34.596 24.2361C34.8684 24.1264 35.1408 24.1264 35.4677 24.1264C35.7946 24.1264 36.067 24.1812 36.3394 24.2361C36.6118 24.3457 36.8298 24.4554 36.9932 24.6199C37.1566 24.7844 37.3201 25.0037 37.4291 25.3327C37.538 25.6069 37.5925 25.9359 37.5925 26.3197C37.5925 26.7035 37.538 27.0325 37.4291 27.3067C37.3201 27.5809 37.2111 27.8002 36.9932 28.0195C36.7753 28.2389 36.6118 28.3485 36.3394 28.4034C36.067 28.513 35.7946 28.513 35.4677 28.513C35.1408 28.513 34.8684 28.4582 34.596 28.4034C34.3236 28.2937 34.1057 28.184 33.9422 28.0195C33.7788 27.855 33.6153 27.5809 33.5064 27.3067C33.4519 27.0325 33.3974 26.7035 33.3974 26.3197ZM34.0512 26.3197C34.0512 26.6487 34.0512 26.868 34.1057 27.1422C34.1601 27.3615 34.2146 27.5809 34.3236 27.7454C34.4326 27.9099 34.596 28.0744 34.7594 28.1292C34.9229 28.2389 35.1953 28.2937 35.4677 28.2937C35.7401 28.2937 35.958 28.2389 36.176 28.1292C36.3394 28.0195 36.5029 27.9099 36.6118 27.7454C36.7208 27.5809 36.7753 27.3615 36.8298 27.1422C36.8842 26.9229 36.8842 26.6487 36.8842 26.3197C36.8842 26.0455 36.8842 25.7714 36.8298 25.4972C36.7753 25.2779 36.7208 25.0586 36.6118 24.8941C36.5029 24.7296 36.3394 24.6199 36.176 24.5102C36.0125 24.4006 35.7401 24.4006 35.4677 24.4006C35.1953 24.4006 34.9774 24.4554 34.7594 24.5102C34.596 24.6199 34.4326 24.7296 34.3236 24.8941C34.2146 25.0586 34.1601 25.2779 34.1057 25.4972C34.1057 25.7714 34.0512 26.0455 34.0512 26.3197Z" fill="white"/>
<path d="M39.3904 26.5939V28.2389L40.0442 28.3486V28.5131H38.2463V28.3486L38.7367 28.2389V24.4554L38.1918 24.3458V24.1813H40.0442C40.3711 24.1813 40.589 24.1813 40.807 24.2361C41.0249 24.2909 41.1883 24.3458 41.2973 24.4554C41.4063 24.5651 41.5152 24.6748 41.5697 24.8393C41.6242 25.0038 41.6242 25.1683 41.6242 25.3328C41.6242 25.4973 41.6242 25.6618 41.5697 25.7714C41.5152 25.8811 41.4607 25.9908 41.3518 26.1004C41.2973 26.2101 41.1883 26.2649 41.0794 26.3746C40.9704 26.4294 40.8614 26.4843 40.7525 26.5391L41.8966 28.2937L42.3869 28.4034V28.5131H41.4063L40.2077 26.5939H39.3904ZM41.0249 25.3876C41.0249 25.2231 41.0249 25.0586 40.9704 24.9489C40.9159 24.8393 40.8614 24.7296 40.7525 24.6748C40.6435 24.6199 40.5346 24.5651 40.4256 24.5103C40.3166 24.4554 40.1532 24.4554 39.9353 24.4554H39.3904V26.3198H39.9353C40.1532 26.3198 40.3166 26.3198 40.4256 26.2649C40.5346 26.2101 40.698 26.1553 40.7525 26.1004C40.8614 26.0456 40.9159 25.9359 40.9159 25.8263C41.0249 25.6618 41.0249 25.5521 41.0249 25.3876Z" fill="white"/>
<path d="M44.6207 28.3486L45.1655 28.2389V24.4554L44.6207 24.3458V24.1813H47.8351V25.2231H47.6172L47.5082 24.5103C47.4537 24.5103 47.3448 24.5103 47.2358 24.5103C47.1268 24.5103 47.0179 24.5103 46.9634 24.5103C46.8544 24.5103 46.7455 24.5103 46.691 24.5103C46.582 24.5103 46.5275 24.5103 46.4731 24.5103H45.7648V26.2101H46.9089L47.0179 25.7166H47.2358V27.0326H47.0179L46.9089 26.4842H45.7648V28.2389H46.6365C46.7455 28.2389 46.9089 28.2389 47.0179 28.2389C47.1268 28.2389 47.2358 28.2389 47.3448 28.2389C47.4537 28.2389 47.5082 28.2389 47.5627 28.2389C47.6172 28.2389 47.6716 28.2389 47.7261 28.2389L47.8896 27.4164H48.1075L48.053 28.5131H44.6207V28.3486Z" fill="white"/>
<path d="M49.633 28.2389L50.1778 28.3486V28.5131H48.7613V28.3486L49.2516 28.2389L50.7226 26.2649L49.4696 24.4006L48.9792 24.3458V24.1813H50.7226V24.3458L50.1778 24.4006L51.104 25.7714L52.0847 24.4006L51.5399 24.3458V24.1813H52.9564V24.3458L52.4661 24.4006L51.2675 26.0456L52.7385 28.2389L53.2288 28.3486V28.5131H51.4854V28.3486L52.0302 28.2389L50.8861 26.5391L49.633 28.2389Z" fill="white"/>
<path d="M56.0073 28.5679C55.6804 28.5679 55.3535 28.513 55.0811 28.4034C54.8087 28.2937 54.5908 28.184 54.3729 27.9647C54.2094 27.8002 54.046 27.526 53.937 27.3067C53.828 27.0325 53.7736 26.7584 53.7736 26.3745C53.7736 25.9907 53.828 25.6617 53.937 25.3876C54.046 25.1134 54.1549 24.8941 54.3729 24.6747C54.5363 24.5102 54.8087 24.3457 55.0811 24.2361C55.3535 24.1264 55.6804 24.1264 56.0073 24.1264C56.1708 24.1264 56.2797 24.1264 56.4432 24.1264C56.5521 24.1264 56.7156 24.1264 56.8245 24.1812C56.9335 24.1812 57.0425 24.2361 57.1514 24.2361C57.2604 24.2361 57.3694 24.2909 57.4783 24.2909V25.2231H57.2604L57.1514 24.6747C56.988 24.5651 56.8245 24.5102 56.6066 24.4554C56.3887 24.4006 56.2252 24.4006 56.0073 24.4006C55.7349 24.4006 55.517 24.4554 55.3535 24.5102C55.1356 24.5651 54.9722 24.6747 54.8632 24.8392C54.7542 25.0037 54.6453 25.2231 54.5363 25.4424C54.4818 25.7166 54.4273 25.9907 54.4273 26.3745C54.4273 26.7035 54.4818 26.9777 54.5363 27.2519C54.5908 27.4712 54.6998 27.6905 54.8632 27.855C54.9722 28.0195 55.1356 28.1292 55.3535 28.2389C55.517 28.2937 55.7349 28.3485 56.0073 28.3485C56.1163 28.3485 56.2797 28.3485 56.3887 28.3485C56.4977 28.3485 56.6066 28.2937 56.7156 28.2937C56.8245 28.2389 56.9335 28.2389 56.988 28.184C57.0425 28.1292 57.1514 28.1292 57.2059 28.0744L57.3149 27.4164H57.5328V28.4582C57.4238 28.4582 57.3149 28.513 57.2059 28.513C57.097 28.513 56.988 28.5679 56.8245 28.5679C56.7156 28.5679 56.5521 28.6227 56.3887 28.6227C56.3342 28.5679 56.1708 28.5679 56.0073 28.5679Z" fill="white"/>
<path d="M58.2956 28.3486L58.8404 28.2389V24.4554L58.2956 24.3458V24.1813H61.51V25.2231H61.2921L61.1831 24.5103C61.1287 24.5103 61.0197 24.5103 60.9107 24.5103C60.8018 24.5103 60.6928 24.5103 60.6383 24.5103C60.5294 24.5103 60.4204 24.5103 60.3659 24.5103C60.2569 24.5103 60.2025 24.5103 60.148 24.5103H59.4397V26.2101H60.5838L60.6928 25.7166H60.9107V27.0326H60.6928L60.5838 26.4842H59.4397V28.2389H60.2569C60.3659 28.2389 60.5294 28.2389 60.6383 28.2389C60.7473 28.2389 60.8562 28.2389 60.9652 28.2389C61.0742 28.2389 61.1287 28.2389 61.1831 28.2389C61.2376 28.2389 61.2921 28.2389 61.3466 28.2389L61.51 27.4164H61.728L61.6735 28.5679H58.2956V28.3486Z" fill="white"/>
<path d="M64.3431 24.3457L63.6893 24.4554V28.2388H64.561C64.8334 28.2388 65.0513 28.2388 65.2148 28.2388C65.3782 28.2388 65.4872 28.2388 65.5417 28.184L65.7596 27.3067H65.9775L65.923 28.5678H62.5452V28.4033L63.09 28.2936V24.5102L62.5452 24.4005V24.236H64.3975V24.3457H64.3431Z" fill="white"/>
<path d="M68.4837 24.3457L67.8299 24.4554V28.2388H68.7016C68.974 28.2388 69.1919 28.2388 69.3554 28.2388C69.5188 28.2388 69.6278 28.2388 69.6823 28.184L69.9002 27.3067H70.1181L70.0637 28.5678H66.6858V28.4033L67.2306 28.2936V24.5102L66.6858 24.4005V24.236H68.5382V24.3457H68.4837Z" fill="white"/>
<path d="M70.881 28.3486L71.4258 28.2389V24.4554L70.881 24.3458V24.1813H74.0954V25.2231H73.8775L73.7685 24.5103C73.714 24.5103 73.6051 24.5103 73.4961 24.5103C73.3871 24.5103 73.2782 24.5103 73.2237 24.5103C73.1147 24.5103 73.0058 24.5103 72.9513 24.5103C72.8423 24.5103 72.7878 24.5103 72.7334 24.5103H72.0251V26.2101H73.1692L73.2782 25.7166H73.4961V27.0326H73.2782L73.1692 26.4842H72.0251V28.2389H72.8968C73.0058 28.2389 73.1692 28.2389 73.2782 28.2389C73.3871 28.2389 73.4961 28.2389 73.6051 28.2389C73.714 28.2389 73.7685 28.2389 73.823 28.2389C73.8775 28.2389 73.932 28.2389 73.9864 28.2389L74.1499 27.4164H74.3678L74.3133 28.5679H70.881V28.3486Z" fill="white"/>
<path d="M78.5629 24.4006L78.0181 24.3458V24.1813H79.4346V24.3458L78.8898 24.4006V28.5131H78.6174L75.9478 24.6199V28.2389L76.5471 28.3486V28.5131H75.076V28.3486L75.6209 28.2389V24.4006L75.076 24.3458V24.1813H76.3836L78.5629 27.3616V24.4006Z" fill="white"/>
<path d="M82.2676 28.5679C81.9407 28.5679 81.6138 28.513 81.3414 28.4034C81.069 28.2937 80.851 28.184 80.6331 27.9647C80.4152 27.8002 80.3062 27.526 80.1973 27.3067C80.0883 27.0325 80.0338 26.7584 80.0338 26.3745C80.0338 25.9907 80.0883 25.6617 80.1973 25.3876C80.3062 25.1134 80.4152 24.8941 80.6331 24.6747C80.7966 24.5102 81.069 24.3457 81.3414 24.2361C81.6138 24.1264 81.9407 24.1264 82.2676 24.1264C82.431 24.1264 82.54 24.1264 82.7034 24.1264C82.8124 24.1264 82.9759 24.1264 83.0848 24.1812C83.1938 24.1812 83.3027 24.2361 83.4117 24.2361C83.5207 24.2361 83.6296 24.2909 83.7386 24.2909V25.2231H83.5207L83.4117 24.6747C83.2483 24.5651 83.0848 24.5102 82.8669 24.4554C82.649 24.4006 82.4855 24.4006 82.2676 24.4006C81.9952 24.4006 81.7772 24.4554 81.6138 24.5102C81.3959 24.5651 81.2324 24.6747 81.1235 24.8392C81.0145 25.0037 80.9055 25.2231 80.7966 25.4424C80.7421 25.7166 80.6876 25.9907 80.6876 26.3745C80.6876 26.7035 80.7421 26.9777 80.7966 27.2519C80.851 27.4712 80.96 27.6905 81.1235 27.855C81.2324 28.0195 81.3959 28.1292 81.6138 28.2389C81.7772 28.2937 81.9952 28.3485 82.2676 28.3485C82.3765 28.3485 82.54 28.3485 82.649 28.3485C82.7579 28.3485 82.8669 28.2937 82.9759 28.2937C83.0848 28.2389 83.1938 28.2389 83.2483 28.184C83.3027 28.1292 83.4117 28.1292 83.4662 28.0744L83.5751 27.4164H83.7931V28.4582C83.6841 28.4582 83.5752 28.513 83.4662 28.513C83.3572 28.513 83.2483 28.5679 83.0848 28.5679C82.9759 28.5679 82.8124 28.6227 82.649 28.6227C82.54 28.5679 82.431 28.5679 82.2676 28.5679Z" fill="white"/>
<path d="M84.5558 28.3486L85.1007 28.2389V24.4554L84.5558 24.3458V24.1813H87.7703V25.2231H87.5523L87.4434 24.5103C87.3889 24.5103 87.2799 24.5103 87.171 24.5103C87.062 24.5103 86.953 24.5103 86.8986 24.5103C86.7896 24.5103 86.6806 24.5103 86.6262 24.5103C86.5172 24.5103 86.4627 24.5103 86.4082 24.5103H85.7V26.2101H86.8441L86.9531 25.7166H87.171V27.0326H86.9531L86.8441 26.4842H85.7V28.2389H86.5717C86.6806 28.2389 86.8441 28.2389 86.9531 28.2389C87.062 28.2389 87.171 28.2389 87.2799 28.2389C87.3889 28.2389 87.4434 28.2389 87.4979 28.2389C87.5524 28.2389 87.6068 28.2389 87.6613 28.2389L87.8248 27.4164H88.0427L87.9882 28.5679H84.5558V28.3486Z" fill="white"/>
<path d="M26.3692 16.7788H27.023L27.4044 18.6431C27.5134 18.8076 27.7313 18.9721 27.9492 19.1366C28.1671 19.3011 28.4396 19.4108 28.712 19.5204C28.9844 19.6301 29.3113 19.7398 29.6382 19.7946C29.965 19.8494 30.2375 19.9043 30.5643 19.9043C31.1092 19.9043 31.545 19.8494 31.9264 19.6849C32.3078 19.5204 32.6347 19.3559 32.8526 19.0818C33.125 18.8076 33.2884 18.5334 33.3974 18.2045C33.5064 17.8755 33.5608 17.4916 33.5608 17.1078C33.5608 16.6143 33.4519 16.1756 33.234 15.9015C33.016 15.5725 32.7436 15.2983 32.4167 15.079C32.0898 14.8597 31.7085 14.6403 31.2726 14.5307C30.8368 14.3662 30.4009 14.2017 29.965 14.0372C29.5292 13.8727 29.0389 13.7082 28.603 13.4888C28.1671 13.2695 27.7858 13.0502 27.4589 12.776C27.132 12.5018 26.8596 12.118 26.6417 11.6794C26.4237 11.2407 26.3148 10.6924 26.3148 10.0344C26.3148 9.48605 26.4237 8.99255 26.6417 8.55389C26.8596 8.11523 27.132 7.7314 27.5678 7.45723C27.9492 7.12824 28.4396 6.90891 29.0389 6.74441C29.6382 6.57991 30.2919 6.47025 31.0002 6.47025C31.654 6.47025 32.3078 6.52508 32.9615 6.57991C33.5608 6.68958 34.1601 6.79924 34.6505 6.90891V9.81504H33.9967L33.6153 8.11523C33.2884 7.8959 32.9615 7.7314 32.5257 7.5669C32.0898 7.4024 31.5995 7.34757 31.0547 7.34757C30.5643 7.34757 30.1285 7.4024 29.7471 7.51207C29.3657 7.62173 29.0933 7.78623 28.8209 7.95073C28.603 8.11523 28.3851 8.38939 28.2761 8.60872C28.1671 8.88289 28.1127 9.15705 28.1127 9.43121C28.1127 9.86988 28.2216 10.2537 28.4396 10.5279C28.6575 10.802 28.9299 11.0762 29.2568 11.2955C29.5837 11.5149 29.965 11.6794 30.4009 11.8439C30.8368 12.0084 31.2726 12.1728 31.7629 12.3373C32.1988 12.5018 32.6891 12.6663 33.125 12.8857C33.5608 13.105 33.9422 13.3243 34.2691 13.6533C34.596 13.9823 34.8684 14.3662 35.0863 14.8048C35.3043 15.2435 35.4132 15.7918 35.4132 16.5046C35.4132 17.1626 35.3043 17.711 35.1408 18.2593C34.9229 18.7528 34.6505 19.2463 34.2691 19.5753C33.8877 19.9591 33.3974 20.2333 32.7981 20.4526C32.1988 20.6719 31.4905 20.7268 30.7278 20.7268C30.2919 20.7268 29.8561 20.7268 29.4747 20.6719C29.0389 20.6171 28.6575 20.5623 28.3306 20.5074C27.9492 20.4526 27.6223 20.3429 27.2954 20.2881C26.9685 20.1784 26.6961 20.1236 26.4782 20.0139V16.7788H26.3692Z" fill="white"/>
<path d="M39.8807 20.5074V19.9591L42.06 19.6849V7.51206H41.5152C40.589 7.51206 39.8807 7.51206 39.2269 7.56689C38.6276 7.62172 38.1918 7.67656 37.9194 7.73139L37.647 9.9247H37.0477V6.63474H49.1971V9.9247H48.4889L48.2165 7.73139C48.1075 7.67656 47.8896 7.67656 47.6716 7.67656C47.4537 7.67656 47.1268 7.62172 46.7999 7.62172C46.473 7.62172 46.1461 7.56689 45.7648 7.56689C45.3834 7.56689 45.002 7.56689 44.6207 7.56689H44.1303V19.7398L46.3096 20.0139V20.5622H39.8807V20.5074Z" fill="white"/>
<path d="M52.6295 19.9591V20.5074H48.1075V19.9591L49.6875 19.6849L54.3729 6.47025H56.3342L61.2376 19.6849L62.981 19.9591V20.5074H57.1515V19.9591L59.0039 19.6849L57.6418 15.6821H52.1936L50.7771 19.6849L52.6295 19.9591ZM54.8087 8.00556L52.466 14.75H57.2604L54.8087 8.00556Z" fill="white"/>
<path d="M67.4486 14.421V19.6849L69.5189 19.9591V20.5074H63.7983V19.9591L65.4327 19.6849V7.45723L63.6348 7.18306V6.63474H69.6278C70.6085 6.63474 71.4257 6.7444 72.0795 6.9089C72.7333 7.0734 73.2236 7.34756 73.6595 7.67656C74.0409 8.00555 74.3133 8.38938 74.4767 8.82804C74.6402 9.26671 74.7491 9.81503 74.7491 10.3634C74.7491 10.9117 74.6947 11.3503 74.5312 11.789C74.3678 12.2277 74.1498 12.5567 73.9319 12.8857C73.6595 13.2147 73.3871 13.4888 73.0057 13.6533C72.6788 13.8727 72.2974 14.0372 71.9161 14.1468L75.6753 19.6849L77.1463 19.9591V20.5074H73.8229L69.9547 14.421H67.4486V14.421ZM72.6788 10.473C72.6788 9.9247 72.6243 9.4312 72.4609 9.10221C72.3519 8.71838 72.134 8.44421 71.8616 8.22488C71.5892 8.00555 71.2078 7.84105 70.772 7.73139C70.3361 7.62172 69.7913 7.56689 69.192 7.56689H67.4486V13.4888H69.2465C69.9002 13.4888 70.3906 13.434 70.8264 13.3243C71.2623 13.2147 71.5892 13.0502 71.8616 12.776C72.134 12.5567 72.2974 12.2277 72.4609 11.8438C72.6243 11.46 72.6788 11.0214 72.6788 10.473Z" fill="white"/>
<path d="M78.6174 16.7788H79.2712L79.6525 18.6431C79.7615 18.8076 79.9794 18.9721 80.1973 19.1366C80.4153 19.3011 80.6877 19.4108 80.9601 19.5204C81.2325 19.6301 81.5594 19.7398 81.8863 19.7946C82.2132 19.8494 82.4856 19.9043 82.8125 19.9043C83.3573 19.9043 83.7931 19.8494 84.1745 19.6849C84.5559 19.5204 84.8828 19.3559 85.1552 19.0818C85.4276 18.8076 85.5911 18.5334 85.7 18.2045C85.809 17.8755 85.8635 17.4916 85.8635 17.1078C85.8635 16.6143 85.7545 16.1756 85.5366 15.9015C85.3186 15.5725 85.0462 15.2983 84.7193 15.079C84.3925 14.8597 84.0111 14.6403 83.5752 14.5307C83.1394 14.3662 82.7035 14.2017 82.2677 14.0372C81.8318 13.8727 81.3415 13.7082 80.9601 13.4888C80.5242 13.2695 80.1429 13.0502 79.816 12.776C79.4891 12.5018 79.2167 12.118 78.9987 11.6794C78.7808 11.2407 78.6718 10.6924 78.6718 10.0344C78.6718 9.48605 78.7808 8.99255 78.9987 8.55389C79.2167 8.11523 79.4891 7.7314 79.9249 7.45723C80.3063 7.12824 80.7966 6.90891 81.3959 6.74441C81.9952 6.57991 82.649 6.47025 83.3573 6.47025C84.0111 6.47025 84.6649 6.52508 85.3186 6.57991C85.9179 6.68958 86.5172 6.79924 87.0076 6.90891V9.81504H86.3538L85.9724 8.11523C85.6455 7.8959 85.3186 7.7314 84.8828 7.5669C84.4469 7.4024 83.9566 7.34757 83.4118 7.34757C82.9214 7.34757 82.4856 7.4024 82.1042 7.51207C81.7228 7.62173 81.4504 7.78623 81.178 7.95073C80.9601 8.11523 80.7422 8.38939 80.6332 8.60872C80.5242 8.88289 80.4698 9.15705 80.4698 9.43121C80.4698 9.86988 80.5787 10.2537 80.7966 10.5279C81.0146 10.802 81.287 11.0762 81.6139 11.2955C81.9408 11.5149 82.3221 11.6794 82.758 11.8439C83.1938 12.0084 83.6297 12.1728 84.12 12.3373C84.5559 12.5018 85.0462 12.6663 85.4821 12.8857C85.9179 13.105 86.2993 13.3243 86.6262 13.6533C86.9531 13.9823 87.2255 14.3662 87.4434 14.8048C87.6614 15.2435 87.7703 15.7918 87.7703 16.5046C87.7703 17.1626 87.6614 17.711 87.4979 18.2593C87.28 18.7528 87.0076 19.2463 86.6262 19.5753C86.2448 19.9591 85.7545 20.2333 85.1552 20.4526C84.5559 20.6719 83.8476 20.7268 83.0849 20.7268C82.649 20.7268 82.2677 20.7268 81.8318 20.6719C81.3959 20.6171 81.0146 20.5623 80.6877 20.5074C80.3063 20.4526 79.9794 20.3429 79.6525 20.2881C79.3256 20.1784 79.0532 20.1236 78.8353 20.0139V16.7788H78.6174Z" fill="white"/>
<path d="M93.4364 54.9972C93.4364 55.6004 92.9461 56.1487 92.2923 56.1487H1.14412C0.544819 56.1487 0 55.6552 0 54.9972V42.9888C0 42.3857 0.490337 41.8373 1.14412 41.8373H92.3468C92.9461 41.8373 93.4909 42.3308 93.4909 42.9888V54.9972H93.4364Z" fill="#231F20"/>
<path d="M34.4326 49.0753L32.0354 48.1431V46.224C32.0354 46.0047 31.8174 45.7853 31.5995 45.7853H29.5837L28.6575 43.1534L27.6768 45.7853H25.6065C25.3886 45.7853 25.1706 46.0047 25.1706 46.224V48.0883L22.7734 48.9656L25.1706 49.8978V51.8169C25.1706 52.0363 25.3886 52.2556 25.6065 52.2556H27.6223L28.5485 54.8876L29.5292 52.2556H31.5995C31.8174 52.2556 32.0354 52.0911 32.0354 51.8169V49.9526L34.4326 49.0753Z" fill="#FAAE2D"/>
<path d="M27.8947 49.2946C27.7313 49.3494 27.5134 49.4043 27.2954 49.4043C26.1513 49.4043 25.7155 48.5269 25.7155 47.8141C25.7155 47.1561 26.1513 46.2788 27.2954 46.2788C28.2216 46.2788 28.8754 46.8271 28.8754 47.7593C28.8754 48.4721 28.4395 48.9108 28.1671 49.0753L28.9299 49.4591C29.7471 49.8978 30.2919 49.9526 30.5643 49.9526C30.7823 49.9526 31.0547 49.8978 31.3271 49.7881H31.3816C31.3816 49.7881 31.4361 49.7881 31.4361 49.8429C31.4361 49.8429 31.4361 49.8978 31.3816 49.8978C31.1636 50.0074 30.7278 50.1719 30.1285 50.1719C29.5292 50.1719 29.1478 50.0074 28.494 49.6236L27.8947 49.2946ZM28.3306 47.9238C28.3306 46.9916 27.7313 46.4981 27.1865 46.4981C26.6961 46.4981 26.2058 46.8271 26.2058 47.7593C26.2058 48.6914 26.7506 49.2398 27.4044 49.2398C27.7858 49.2398 28.3306 49.0753 28.3306 47.9238Z" fill="white"/>
<path d="M29.5837 49.2946C29.5292 49.2398 29.5292 49.2398 29.5292 49.1849C29.5292 48.9656 29.5292 48.7463 29.5292 48.6915C29.5292 48.6366 29.5292 48.5818 29.5837 48.5818C29.6381 48.5818 29.6381 48.6366 29.6381 48.6366C29.6381 48.6915 29.6381 48.7463 29.6926 48.856C29.8016 49.1301 30.0195 49.2398 30.2374 49.2398C30.5643 49.2398 30.7823 49.0205 30.7823 48.8011C30.7823 48.5818 30.7278 48.4173 30.4009 48.198L30.2374 48.0335C29.8016 47.7045 29.6381 47.4303 29.6381 47.1013C29.6381 46.6626 30.0195 46.3336 30.5643 46.3336C30.8367 46.3336 31.0002 46.3885 31.1091 46.3885C31.1636 46.3885 31.1636 46.3885 31.1636 46.4433C31.1636 46.4981 31.1636 46.6078 31.1636 46.9368C31.1636 47.0465 31.1636 47.0465 31.1091 47.0465C31.0547 47.0465 31.0547 47.0465 31.0547 46.9916C31.0547 46.9368 31.0547 46.8271 30.9457 46.7175C30.8912 46.6626 30.7823 46.4981 30.5098 46.4981C30.2374 46.4981 30.0195 46.6626 30.0195 46.882C30.0195 47.0465 30.1285 47.211 30.4554 47.4303L30.5643 47.54C31.0547 47.9238 31.2181 48.1431 31.2181 48.527C31.2181 48.7463 31.1091 49.0205 30.8367 49.2398C30.6188 49.3495 30.4009 49.4043 30.2374 49.4043C29.9105 49.4043 29.7471 49.4043 29.5837 49.2946Z" fill="white"/>
<path d="M31.436 51.5428C31.436 51.5976 30.1829 51.7073 28.603 51.7073C27.023 51.7073 25.7699 51.6525 25.7699 51.5428C25.7699 51.488 27.023 51.4331 28.603 51.4331C30.1829 51.4331 31.436 51.488 31.436 51.5428Z" fill="#808184"/>
<path d="M52.575 49.0753L50.1778 48.1431V46.224C50.1778 46.0047 49.9599 45.7853 49.7419 45.7853H47.7261L46.7999 43.1534L45.8192 45.7853H43.7489C43.531 45.7853 43.3131 46.0047 43.3131 46.224V48.0883L40.8614 48.9656L43.2586 49.8978V51.8169C43.2586 52.0363 43.4765 52.2556 43.6944 52.2556H45.7648L46.691 54.8876L47.6716 52.2556H49.7419C49.9599 52.2556 50.1778 52.0911 50.1778 51.8169V49.9526L52.575 49.0753Z" fill="#FAAE2D"/>
<path d="M46.0372 49.2946C45.8737 49.3494 45.6558 49.4043 45.4379 49.4043C44.2938 49.4043 43.8579 48.5269 43.8579 47.8141C43.8579 47.1561 44.2938 46.2788 45.4379 46.2788C46.3641 46.2788 47.0179 46.8271 47.0179 47.7593C47.0179 48.4721 46.582 48.9108 46.3096 49.0753L47.0723 49.4591C47.8896 49.8978 48.4344 49.9526 48.7068 49.9526C48.9247 49.9526 49.1971 49.8978 49.4695 49.7881H49.524C49.524 49.7881 49.5785 49.7881 49.5785 49.8429C49.5785 49.8429 49.5785 49.8978 49.524 49.8978C49.3061 50.0074 48.8702 50.1719 48.2709 50.1719C47.6716 50.1719 47.2903 50.0074 46.6365 49.6236L46.0372 49.2946ZM46.473 47.9238C46.473 46.9916 45.8737 46.4981 45.3289 46.4981C44.8386 46.4981 44.3482 46.8271 44.3482 47.7593C44.3482 48.6914 44.8931 49.2398 45.5468 49.2398C45.9282 49.2398 46.473 49.0753 46.473 47.9238Z" fill="white"/>
<path d="M47.7261 49.2946C47.6716 49.2398 47.6716 49.2398 47.6716 49.1849C47.6716 48.9656 47.6716 48.7463 47.6716 48.6915C47.6716 48.6366 47.6716 48.5818 47.7261 48.5818C47.7806 48.5818 47.7806 48.6366 47.7806 48.6366C47.7806 48.6915 47.7806 48.7463 47.8351 48.856C47.944 49.1301 48.162 49.2398 48.3799 49.2398C48.7613 49.2398 48.9247 49.0205 48.9247 48.8011C48.9247 48.5818 48.8702 48.4173 48.5433 48.198L48.3799 48.0335C47.944 47.7045 47.7806 47.4303 47.7806 47.1013C47.7806 46.6626 48.162 46.3336 48.7068 46.3336C48.9792 46.3336 49.1426 46.3885 49.2516 46.3885C49.3061 46.3885 49.3061 46.3885 49.3061 46.4433C49.3061 46.4981 49.3061 46.6078 49.3061 46.9368C49.3061 47.0465 49.3061 47.0465 49.2516 47.0465C49.1971 47.0465 49.1971 47.0465 49.1971 46.9916C49.1971 46.9368 49.1971 46.8271 49.0882 46.7175C49.0337 46.6626 48.9247 46.4981 48.6523 46.4981C48.3799 46.4981 48.162 46.6626 48.162 46.882C48.162 47.0465 48.2709 47.211 48.5978 47.4303L48.7068 47.54C49.1971 47.9238 49.3606 48.1431 49.3606 48.527C49.3606 48.7463 49.2516 49.0205 48.9792 49.2398C48.7613 49.3495 48.5433 49.4043 48.3799 49.4043C48.053 49.4043 47.8896 49.4043 47.7261 49.2946Z" fill="white"/>
<path d="M49.5785 51.5428C49.5785 51.5976 48.3254 51.7073 46.7454 51.7073C45.1654 51.7073 43.9124 51.6525 43.9124 51.5428C43.9124 51.488 45.1654 51.4331 46.7454 51.4331C48.3254 51.4331 49.5785 51.488 49.5785 51.5428Z" fill="#808184"/>
<path d="M70.7175 49.0753L68.3203 48.1431V46.224C68.3203 46.0047 68.1023 45.7853 67.8844 45.7853H65.8686L64.9424 43.1534L63.9617 45.7853H61.8914C61.6735 45.7853 61.4556 46.0047 61.4556 46.224V48.0883L59.0583 48.9656L61.4556 49.8978V51.8169C61.4556 52.0363 61.6735 52.2556 61.8914 52.2556H63.9072L64.8334 54.8876L65.8141 52.2556H67.8844C68.1023 52.2556 68.3203 52.0911 68.3203 51.8169V49.9526L70.7175 49.0753Z" fill="#FAAE2D"/>
<path d="M64.1796 49.2946C64.0162 49.3494 63.7983 49.4043 63.5803 49.4043C62.4362 49.4043 62.0004 48.5269 62.0004 47.8141C62.0004 47.1561 62.4362 46.2788 63.5803 46.2788C64.5065 46.2788 65.1603 46.8271 65.1603 47.7593C65.1603 48.4721 64.7245 48.9108 64.4521 49.0753L65.2148 49.4591C66.032 49.8978 66.5768 49.9526 66.8492 49.9526C67.0672 49.9526 67.3396 49.8978 67.612 49.7881H67.6665C67.6665 49.7881 67.721 49.7881 67.721 49.8429C67.721 49.8429 67.721 49.8978 67.6665 49.8978C67.4485 50.0074 67.0127 50.1719 66.4134 50.1719C65.8141 50.1719 65.3782 50.0074 64.7789 49.6236L64.1796 49.2946ZM64.6155 47.9238C64.6155 46.9916 64.0162 46.4981 63.4714 46.4981C62.981 46.4981 62.4907 46.8271 62.4907 47.7593C62.4907 48.6914 63.0355 49.2398 63.6893 49.2398C64.0707 49.2398 64.6155 49.0753 64.6155 47.9238Z" fill="white"/>
<path d="M65.8686 49.2946C65.8141 49.2398 65.8141 49.2398 65.8141 49.1849C65.8141 48.9656 65.8141 48.7463 65.8141 48.6915C65.8141 48.6366 65.8141 48.5818 65.8686 48.5818C65.923 48.5818 65.923 48.6366 65.923 48.6366C65.923 48.6915 65.923 48.7463 65.9775 48.856C66.0865 49.1301 66.3044 49.2398 66.5223 49.2398C66.8492 49.2398 67.0672 49.0205 67.0672 48.8011C67.0672 48.5818 67.0127 48.4173 66.6858 48.198L66.5223 48.0335C66.0865 47.7045 65.923 47.4303 65.923 47.1013C65.923 46.6626 66.3044 46.3336 66.8492 46.3336C67.1216 46.3336 67.2851 46.3885 67.394 46.3885C67.4485 46.3885 67.4485 46.3885 67.4485 46.4433C67.4485 46.4981 67.4485 46.6078 67.4485 46.9368C67.4485 47.0465 67.4485 47.0465 67.394 47.0465C67.394 47.0465 67.3396 47.0465 67.3396 46.9916C67.3396 46.9368 67.3396 46.8271 67.2306 46.7175C67.1761 46.6626 67.0672 46.4981 66.7948 46.4981C66.5223 46.4981 66.3044 46.6626 66.3044 46.882C66.3044 47.0465 66.4134 47.211 66.7403 47.4303L66.8492 47.54C67.3396 47.9238 67.503 48.1431 67.503 48.527C67.503 48.7463 67.394 49.0205 67.1216 49.2398C66.9037 49.3495 66.6858 49.4043 66.5223 49.4043C66.1955 49.4043 66.032 49.4043 65.8686 49.2946Z" fill="white"/>
<path d="M67.7209 51.5428C67.7209 51.5976 66.4678 51.7073 64.8879 51.7073C63.3079 51.7073 62.0548 51.6525 62.0548 51.5428C62.0548 51.488 63.3079 51.4331 64.8879 51.4331C66.4678 51.4331 67.7209 51.488 67.7209 51.5428Z" fill="#808184"/>
<path d="M95.8336 0.219331H95.1798V1.86431H94.9074V0.219331H94.2537V0H95.8336V0.219331Z" fill="#231F20"/>
<path d="M97.8494 1.86431H97.577V0.438662L96.9777 1.15149H96.9232L96.3784 0.438662H96.3239V1.86431H96.106V0H96.3239L96.9777 0.767658L97.577 0H97.8494V1.86431Z" fill="#231F20"/>
<path d="M41.7876 39.8634H38.3552V39.2603C38.6276 38.9861 38.9 38.7668 39.118 38.5475C39.3359 38.3281 39.5538 38.1636 39.7718 37.9443C39.9352 37.7798 40.0986 37.6153 40.2621 37.4508C40.4255 37.2863 40.5345 37.1218 40.589 36.9573C40.6979 36.7928 40.7524 36.5735 40.8069 36.3541C40.8614 36.1348 40.8614 35.8606 40.8614 35.6413C40.8614 35.2575 40.7524 34.9833 40.589 34.8188C40.4255 34.6543 40.1531 34.5447 39.7718 34.5447C39.6628 34.5447 39.6083 34.5447 39.4993 34.5447C39.3904 34.5447 39.3359 34.5995 39.2814 34.5995C39.2269 34.5995 39.118 34.6543 39.0635 34.6543C39.009 34.6543 38.9545 34.7092 38.9 34.7092L38.7366 35.422H38.4642V34.3253C38.6821 34.2705 38.9 34.2157 39.0635 34.2157C39.2814 34.1608 39.4993 34.1608 39.7173 34.1608C40.3166 34.1608 40.8069 34.2705 41.0793 34.5447C41.4062 34.8188 41.5152 35.1478 41.5152 35.6413C41.5152 35.8606 41.4607 36.08 41.4062 36.2993C41.3517 36.5186 41.2428 36.6831 41.1338 36.8476C41.0248 37.0121 40.8614 37.2315 40.7524 37.396C40.589 37.5605 40.4255 37.7798 40.2076 37.9443C39.9897 38.1088 39.7718 38.3281 39.5538 38.5475C39.2814 38.7668 39.0635 38.9861 38.7911 39.2603H41.6786V39.8634H41.7876Z" fill="#231F20"/>
<path d="M54.4274 39.8634H50.9951V39.2603C51.2675 38.9861 51.5399 38.7668 51.7578 38.5475C51.9757 38.3281 52.1937 38.1636 52.4116 37.9443C52.575 37.7798 52.7385 37.6153 52.9019 37.4508C53.0654 37.2863 53.1743 37.1218 53.2288 36.9573C53.3378 36.7928 53.3923 36.5735 53.4467 36.3541C53.5012 36.1348 53.5012 35.9155 53.5012 35.6413C53.5012 35.2575 53.3923 34.9833 53.2288 34.8188C53.0654 34.6543 52.793 34.5447 52.4116 34.5447C52.3026 34.5447 52.2481 34.5447 52.1392 34.5447C52.0302 34.5447 51.9757 34.5995 51.9212 34.5995C51.8668 34.5995 51.7578 34.6543 51.7033 34.6543C51.6488 34.6543 51.5944 34.7092 51.5399 34.7092L51.3764 35.422H51.213V34.3253C51.4309 34.2705 51.6488 34.2157 51.8123 34.2157C52.0302 34.1608 52.2481 34.1608 52.4661 34.1608C53.0654 34.1608 53.5557 34.2705 53.8281 34.5447C54.155 34.8188 54.264 35.1478 54.264 35.6413C54.264 35.8606 54.2095 36.08 54.155 36.2993C54.1005 36.5186 53.9916 36.6831 53.8826 36.8476C53.7736 37.0121 53.6102 37.2315 53.5012 37.396C53.3378 37.5605 53.1743 37.7798 52.9564 37.9443C52.7385 38.1088 52.5205 38.3281 52.3026 38.5475C52.0302 38.7668 51.8123 38.9861 51.5399 39.2603H54.4274V39.8634V39.8634Z" fill="#231F20"/>
<path d="M46.2006 37.0121C46.2006 37.5055 46.1462 37.8894 46.0917 38.2732C46.0372 38.657 45.9282 38.9312 45.7648 39.2054C45.6013 39.4795 45.4379 39.644 45.1655 39.7537C44.9476 39.8634 44.6751 39.9182 44.3483 39.9182C43.749 39.9182 43.3131 39.644 42.9862 39.1505C42.7138 38.657 42.5504 37.9442 42.5504 36.9572C42.5504 36.0251 42.7138 35.3122 42.9862 34.8187C43.3131 34.3253 43.749 34.0511 44.3483 34.0511C44.9476 34.0511 45.3834 34.2704 45.7103 34.7639C46.0372 35.3671 46.2006 36.0799 46.2006 37.0121ZM45.4379 37.0121C45.4379 36.6282 45.4379 36.2444 45.3834 35.9154C45.3289 35.5864 45.2744 35.3122 45.22 35.0929C45.111 34.8736 45.002 34.7091 44.8931 34.5994C44.7296 34.4897 44.5662 34.4349 44.4027 34.4349C44.1848 34.4349 44.0214 34.4897 43.9124 34.5994C43.8034 34.7091 43.6945 34.8736 43.5855 35.0929C43.531 35.3122 43.4765 35.5864 43.4221 35.9154C43.3676 36.2444 43.3676 36.5734 43.3676 37.0121C43.3676 37.3959 43.3676 37.7797 43.4221 38.1087C43.4765 38.4377 43.4765 38.7119 43.5855 38.9312C43.64 39.1505 43.749 39.315 43.9124 39.4247C44.0214 39.5344 44.2393 39.5892 44.4027 39.5892C44.6207 39.5892 44.7841 39.5344 44.8931 39.4247C45.0565 39.315 45.1655 39.1505 45.22 38.9312C45.2744 38.7119 45.3834 38.4377 45.3834 38.1087C45.4379 37.7797 45.4379 37.3959 45.4379 37.0121Z" fill="#231F20"/>
<path d="M49.1427 39.5344L50.2868 39.6441V39.8634H47.2903V39.6441L48.4344 39.5344V34.9285L47.2903 35.3123V35.093L48.9247 34.1608H49.1427V39.5344Z" fill="#231F20"/>
<path d="M109.073 56.2035V53.8457H110.217V46.7175H109.291L108.691 48.5818H106.839V44.4145H116.7V48.5818H114.793L114.248 46.7175H113.268V53.8457H114.466V56.2035H109.073Z" fill="white"/>
<path d="M117.354 56.2035V53.8457H118.553V46.7723H117.354V44.4145H124.6C125.199 44.4145 125.744 44.5242 126.18 44.7983C126.616 45.0725 126.997 45.4015 127.27 45.895C127.542 46.3336 127.651 46.882 127.651 47.4851C127.651 47.8141 127.597 48.0883 127.542 48.3624C127.488 48.6366 127.324 48.8559 127.161 49.0753C126.997 49.2946 126.779 49.5139 126.561 49.6784C126.343 49.8429 126.017 50.0074 125.69 50.1171C126.234 50.2816 126.616 50.5009 126.834 50.7202C127.052 50.9396 127.161 51.3234 127.161 51.8169V53.8457H128.196V56.2035H124.11V53.4619C124.11 52.8587 124.055 52.4201 124.001 52.0911C123.946 51.8169 123.783 51.5427 123.565 51.4331C123.347 51.2686 122.966 51.2137 122.475 51.2137H121.549V53.8457H122.475V56.2035H117.354V56.2035ZM121.604 46.7723V49.2398H122.802C123.347 49.2398 123.728 49.1301 124.001 48.9108C124.273 48.6914 124.382 48.4173 124.382 47.9786C124.382 47.54 124.273 47.2658 124.001 47.0465C123.728 46.8271 123.347 46.7175 122.748 46.7175H121.604V46.7723Z" fill="white"/>
<path d="M129.721 52.0911V46.7175H128.523V44.4145H133.971V46.7723H132.718V51.7072C132.718 52.3104 132.881 52.8039 133.208 53.1329C133.535 53.4619 133.971 53.6264 134.57 53.6264C135.17 53.6264 135.605 53.4619 135.932 53.1329C136.259 52.8039 136.423 52.3652 136.423 51.7072V46.7723H135.224V44.4145H139.474V46.3885C139.746 46.3885 140.018 46.2788 140.236 46.1143C140.454 45.9498 140.563 45.7853 140.563 45.6208H140.236V44.4145H141.435V45.8401C141.38 46.224 141.108 46.4981 140.672 46.7175C140.236 46.9368 139.855 47.0465 139.474 47.0465V52.0911C139.474 52.7491 139.365 53.3522 139.147 53.9005C138.929 54.4489 138.602 54.8875 138.166 55.2714C137.73 55.6552 137.24 55.9294 136.641 56.1487C136.041 56.368 135.387 56.4229 134.625 56.4229C133.862 56.4229 133.208 56.3132 132.609 56.1487C132.01 55.9294 131.519 55.6552 131.083 55.2714C130.648 54.8875 130.321 54.4489 130.103 53.9005C129.83 53.3522 129.721 52.7491 129.721 52.0911Z" fill="white"/>
<path d="M141.163 50.2816C141.163 49.6785 141.217 49.0753 141.38 48.527C141.544 47.9787 141.762 47.4303 142.089 46.9368C142.416 46.4433 142.797 46.0047 143.233 45.6209C143.614 45.2919 143.996 45.0177 144.431 44.7984C144.867 44.579 145.358 44.4145 145.848 44.3049C146.338 44.1952 146.829 44.1404 147.428 44.1404C148.136 44.1404 148.79 44.25 149.389 44.4145C149.989 44.579 150.533 44.8532 150.969 45.1822C151.46 45.5112 151.841 45.895 152.222 46.3337C152.549 46.2788 152.767 46.1692 152.931 45.9499C153.094 45.7305 153.203 45.5112 153.203 45.3467H152.876V44.1952H154.075V45.6209C154.02 46.0047 153.857 46.2788 153.475 46.4982C153.149 46.7175 152.822 46.8272 152.549 46.8272C153.258 47.869 153.639 49.0205 153.639 50.3365C153.639 52.2008 152.931 53.7361 151.569 54.9424C150.424 55.9294 149.062 56.4229 147.428 56.4229C145.793 56.4229 144.431 55.9294 143.287 54.9424C142.851 54.5586 142.47 54.1199 142.143 53.6264C141.816 53.1329 141.598 52.6394 141.435 52.0911C141.272 51.488 141.163 50.8848 141.163 50.2816ZM144.431 50.2816C144.431 50.8848 144.54 51.488 144.813 51.9814C145.085 52.4749 145.467 52.8588 145.902 53.1329C146.393 53.4071 146.883 53.5716 147.428 53.5716C147.973 53.5716 148.518 53.4071 148.953 53.1329C149.389 52.8588 149.771 52.4749 150.043 51.9814C150.315 51.488 150.424 50.9396 150.424 50.2816C150.424 49.6785 150.315 49.0753 150.043 48.5818C149.771 48.0883 149.389 47.7045 148.953 47.4303C148.463 47.1562 147.973 46.9917 147.428 46.9917C146.883 46.9917 146.338 47.1562 145.902 47.4303C145.467 47.7045 145.085 48.0883 144.813 48.5818C144.54 49.1301 144.431 49.6785 144.431 50.2816ZM145.793 41.1246H147.373L148.463 43.2082H147.591L145.793 41.1246Z" fill="white"/>
<path d="M154.456 56.2035V53.8457H155.655V46.7723H154.456V44.4145H158.651L162.519 50.8847L162.465 46.7723H161.212V44.4145H166.551V46.7723H165.407V56.2035H162.846L158.542 49.0753L158.597 53.8457H159.85V56.2035H154.456Z" fill="white"/>
<path d="M175.867 51.8718H174.396V49.6784H180.335V51.8718H179.3V56.1487H176.739V54.6134C175.813 55.8197 174.56 56.368 173.034 56.368C172.544 56.368 172.054 56.3132 171.618 56.2035C171.128 56.0939 170.692 55.9294 170.256 55.71C169.82 55.4907 169.439 55.2165 169.166 54.9424C168.512 54.3392 168.022 53.6264 167.641 52.8587C167.314 52.0363 167.096 51.2138 167.096 50.3364C167.096 49.7333 167.15 49.1301 167.314 48.5818C167.477 48.0335 167.695 47.4851 168.022 46.9916C168.349 46.4981 168.73 46.0595 169.166 45.6757C169.711 45.237 170.31 44.8532 170.964 44.6338C171.618 44.3597 172.326 44.25 173.089 44.25C174.342 44.25 175.268 44.6338 175.976 45.3467V44.4145H178.701V48.527H175.759C175.323 47.54 174.56 46.9916 173.361 46.9916C172.925 46.9916 172.49 47.0465 172.163 47.211C171.781 47.3755 171.454 47.5948 171.182 47.869C170.91 48.1431 170.692 48.527 170.528 48.9108C170.365 49.3494 170.31 49.7881 170.31 50.2268C170.31 50.7203 170.365 51.1589 170.528 51.5428C170.692 51.9266 170.855 52.3104 171.128 52.5846C171.4 52.8587 171.727 53.0781 172.108 53.2426C172.49 53.4071 172.871 53.4619 173.361 53.4619C173.906 53.4619 174.396 53.2974 174.832 53.0232C175.323 52.8587 175.65 52.4201 175.867 51.8718Z" fill="white"/>
<path d="M185.293 56.2035V53.8457H186.491V51.2137H184.966V49.0204H186.491V46.8271H185.293V44.4145H190.85C191.667 44.4145 192.375 44.4693 192.92 44.579C193.52 44.6887 193.955 44.7983 194.337 45.0176C195.372 45.566 196.135 46.2788 196.625 47.1561C197.115 48.0334 197.333 49.0753 197.333 50.3364C197.333 51.1589 197.224 51.9266 197.006 52.5846C196.788 53.2426 196.462 53.8457 196.026 54.3392C195.59 54.8327 194.991 55.2714 194.337 55.6552C193.955 55.8197 193.52 55.9842 192.92 56.0939C192.321 56.2035 191.613 56.2584 190.85 56.2584H185.293V56.2035ZM189.597 46.7723V48.9656H191.885V51.1589H189.597V53.7909H190.523C191.286 53.7909 191.994 53.6812 192.539 53.4071C193.084 53.1329 193.52 52.7491 193.792 52.2007C194.064 51.6524 194.228 51.0492 194.228 50.2816C194.228 49.5139 194.064 48.8559 193.792 48.3076C193.52 47.7593 193.084 47.3755 192.539 47.1013C191.994 46.8271 191.286 46.7175 190.523 46.7175H189.597V46.7723Z" fill="white"/>
<path d="M197.824 56.2035V53.8457H198.804L200.984 46.7723H199.839V44.4145H208.066V46.7723H206.922L209.101 53.8457H210.082V56.2035H204.961V53.8457H205.996L205.506 52.2556H202.291L201.855 53.8457H202.89V56.2035H197.824ZM202.836 50.1719H205.124L203.98 46.4433L202.836 50.1719ZM203.108 57.1905H204.688V58.7807H203.108V57.1905Z" fill="white"/>
<path d="M210.518 56.2035V53.8457H211.717V46.7723H210.518V44.4145H215.966V46.7723H214.768V53.8457H215.966V56.2035H210.518Z" fill="white"/>
<path d="M221.251 56.2035V53.8457H222.449V46.7723H221.251V44.4145H226.699V46.7723H225.5V48.9108H228.933V46.7723H227.68V44.4145H233.182V46.7723H231.984V53.8457H233.182V56.2035H227.68V53.8457H228.933V51.2686H225.5V53.8457H226.699V56.2035H221.251Z" fill="white"/>
<path d="M233.945 50.2816C233.945 49.6785 234 49.0753 234.163 48.527C234.327 47.9787 234.544 47.4303 234.871 46.9368C235.198 46.4434 235.58 46.0047 236.015 45.6209C236.397 45.2919 236.778 45.0177 237.214 44.7984C237.65 44.579 238.14 44.4145 238.631 44.3049C239.121 44.1952 239.611 44.1404 240.211 44.1404C241.028 44.1404 241.791 44.25 242.499 44.5242C243.207 44.7984 243.806 45.1274 244.351 45.6209C245.768 46.882 246.421 48.4173 246.421 50.2268C246.421 52.0363 245.713 53.6264 244.351 54.8328C243.207 55.8197 241.845 56.3132 240.211 56.3132C238.576 56.3132 237.214 55.8197 236.07 54.8328C235.634 54.4489 235.253 54.0103 234.926 53.5168C234.599 53.0233 234.381 52.5298 234.218 51.9815C234.054 51.488 233.945 50.8848 233.945 50.2816ZM237.16 50.2816C237.16 50.8848 237.269 51.488 237.541 51.9815C237.813 52.475 238.195 52.8588 238.631 53.1329C239.121 53.4071 239.611 53.5716 240.156 53.5716C240.701 53.5716 241.246 53.4071 241.682 53.1329C242.117 52.8588 242.499 52.475 242.771 51.9815C243.044 51.488 243.153 50.9396 243.153 50.2816C243.153 49.6785 243.044 49.0753 242.771 48.5818C242.499 48.0883 242.117 47.7045 241.682 47.4303C241.191 47.1562 240.701 46.9917 240.156 46.9917C239.611 46.9917 239.066 47.1562 238.631 47.4303C238.14 47.7045 237.813 48.0883 237.541 48.5818C237.323 49.1302 237.16 49.6785 237.16 50.2816ZM239.339 57.4099H240.919V59H239.339V57.4099Z" fill="white"/>
<path d="M256.337 51.8717H259.606C259.334 52.8039 258.898 53.6264 258.299 54.2844C257.699 54.9424 256.991 55.4907 256.174 55.8745C255.357 56.2584 254.43 56.4229 253.504 56.4229C251.87 56.4229 250.508 55.9294 249.364 54.9424C248.928 54.5585 248.546 54.1199 248.219 53.6264C247.893 53.1329 247.675 52.6394 247.511 52.0911C247.348 51.5428 247.293 50.9396 247.293 50.3364C247.293 49.4043 247.457 48.5818 247.838 47.8141C248.165 47.0465 248.71 46.3336 249.418 45.7305C250.562 44.7435 251.924 44.25 253.559 44.25C254.212 44.25 254.812 44.3597 255.357 44.579C255.901 44.7983 256.392 45.1273 256.773 45.5112V44.4145H259.497V48.9656H256.555C256.337 48.3076 255.956 47.869 255.465 47.54C254.975 47.211 254.376 47.0465 253.722 47.0465C253.123 47.0465 252.578 47.211 252.088 47.4851C251.597 47.7593 251.216 48.1431 250.944 48.6366C250.671 49.1301 250.562 49.6784 250.562 50.3364C250.562 50.9396 250.671 51.5428 250.944 52.0362C251.216 52.5297 251.597 52.9136 252.033 53.1877C252.523 53.4619 253.014 53.6264 253.559 53.6264C254.757 53.5716 255.738 53.0232 256.337 51.8717Z" fill="white"/>
<path d="M264.618 56.2035V53.8457H265.817V46.7723H264.618V44.4145H274.97V48.6914H272.9L272.191 46.7723H268.868V48.6914H271.047V51.2686H268.868V53.8457H270.448V56.2035H264.618Z" fill="white"/>
<path d="M275.624 56.2035V53.8457H276.822V46.7723H275.624V44.4145H281.617C282.434 44.4145 283.142 44.579 283.742 44.8532C284.341 45.1821 284.777 45.6208 285.104 46.1691C285.431 46.7175 285.594 47.3755 285.594 48.1431C285.594 48.6914 285.485 49.1849 285.322 49.6784C285.158 50.1171 284.886 50.5558 284.559 50.8848C284.232 51.2137 283.796 51.4879 283.306 51.6524C282.815 51.8169 282.271 51.9266 281.671 51.9266H279.928V53.9006H281.181V56.2584H275.624V56.2035ZM279.819 46.7723V49.6784H280.636C281.889 49.6784 282.489 49.1849 282.489 48.1979C282.489 47.211 281.889 46.7723 280.636 46.7723H279.819Z" fill="white"/>
<path d="M288.373 56.2035V53.8457H289.571V46.7175H288.645L288.046 48.5818H286.139V44.4145H296V48.5818H294.148L293.548 46.7175H292.622V53.8457H293.766V56.2035H288.373Z" fill="white"/>
<path d="M192.702 5.922C189.924 5.922 187.581 7.73148 186.6 10.3086C186.546 10.4183 186.382 10.9666 186.382 10.9666L182.514 27.7454H191.34C194.391 27.7454 196.952 25.5521 197.66 22.5911L201.474 5.922H192.702V5.922Z" fill="#0DB04B"/>
<path d="M177.992 1.09665C175.05 1.09665 172.544 3.12546 171.781 5.8671C171.727 6.08643 171.672 6.30576 171.618 6.47026L165.625 32.5706H174.451C177.502 32.5706 180.008 30.487 180.716 27.6357L186.818 1.09665H177.992Z" fill="#F26F21"/>
<path d="M161.048 5.922C158.161 5.922 155.764 7.89597 154.837 10.5828C154.837 10.6376 154.783 10.6924 154.783 10.7473L154.62 11.3504L150.915 27.7454H159.959C162.683 27.7454 164.971 25.9359 165.897 23.4136L166.279 21.8783L169.929 5.922H161.048V5.922Z" fill="#0066B2"/>
<path d="M159.414 11.4052H159.251C158.597 11.4052 158.052 11.6245 157.507 12.0632C156.962 12.5019 156.635 12.9954 156.526 13.434L154.511 22.2621H154.62C155.273 22.2621 155.873 22.0428 156.417 21.6041C156.962 21.1654 157.344 20.6171 157.453 19.9591L157.888 18.04H161.92C162.574 18.04 163.173 17.8206 163.718 17.382C164.263 16.9433 164.59 16.395 164.753 15.737V15.6273H158.433L158.869 13.8179H164.317C164.971 13.8179 165.516 13.5985 166.061 13.1599C166.606 12.7212 166.932 12.1729 167.096 11.5149L167.15 11.4052H159.414Z" fill="white"/>
<path d="M181.752 11.8986C181.425 11.5696 180.934 11.3503 180.389 11.3503H172.653L170.147 22.262H170.256C170.91 22.262 171.509 22.0427 172.054 21.604C172.599 21.1654 172.98 20.617 173.089 19.959L173.525 18.0399H178.864C179.518 18.0399 180.063 17.9851 180.607 17.5464C181.152 17.1077 181.534 16.3949 181.697 15.7369L182.187 13.7081C182.242 13.5436 182.242 13.3791 182.242 13.2146C182.296 12.7211 182.078 12.2825 181.752 11.8986ZM179.354 15.6273H174.124L174.56 13.8178H179.79L179.354 15.6273Z" fill="white"/>
<path d="M197.442 11.9535C197.115 11.6245 196.625 11.4052 196.08 11.4052H192.702H192.484H187.962V11.46C187.908 11.6245 187.908 11.789 187.908 11.9535C187.908 12.5019 188.071 12.9405 188.398 13.2695C188.725 13.5985 189.216 13.8179 189.76 13.8179H191.449L189.488 22.3169H189.597C190.251 22.3169 190.85 22.0976 191.395 21.6589C191.94 21.2203 192.321 20.6719 192.43 20.0139L193.847 13.8179H197.878V13.763C197.933 13.5985 197.933 13.434 197.933 13.2695C197.987 12.7212 197.824 12.2825 197.442 11.9535Z" fill="white"/>
<path d="M199.077 25.8811C199.077 24.8393 199.894 24.0168 200.929 24.0168C201.964 24.0168 202.782 24.8393 202.782 25.8811C202.782 26.9229 201.964 27.7454 200.929 27.7454C199.894 27.7454 199.077 26.9229 199.077 25.8811ZM202.346 25.8811C202.346 25.0038 201.692 24.3458 200.929 24.3458C200.166 24.3458 199.513 25.0038 199.513 25.8811C199.513 26.7584 200.166 27.4164 200.929 27.4164C201.692 27.4164 202.346 26.7584 202.346 25.8811ZM200.221 24.7844H200.984C201.474 24.7844 201.746 24.9489 201.746 25.3876C201.746 25.7714 201.528 25.9359 201.202 25.9359L201.746 26.8681H201.365L200.82 25.9359H200.602V26.8681H200.221V24.7844ZM200.602 25.7166H200.929C201.147 25.7166 201.365 25.6618 201.365 25.3876C201.365 25.1134 201.147 25.1134 200.929 25.1134H200.602V25.7166Z" fill="white"/>
<path d="M206.922 22.2621V13.8727H211.335V14.9694H208.23V17.4369H211.063V18.5335H208.23V21.1655H211.335V22.2621H206.922Z" fill="white"/>
<path d="M217.11 21.9331C216.565 22.2072 215.857 22.3717 214.985 22.3717C214.005 22.3717 213.297 22.0976 212.752 21.4944C212.207 20.9461 211.934 20.1236 211.934 19.1366C211.934 18.1496 212.207 17.382 212.697 16.7788C213.188 16.1756 213.95 15.8467 214.876 15.8467C215.258 15.8467 215.585 15.9015 215.857 16.0112V13.1599H217.11V21.9331ZM215.857 17.053C215.639 16.9433 215.367 16.8885 214.985 16.8885C214.441 16.8885 214.005 17.1078 213.678 17.5465C213.405 17.9303 213.242 18.4786 213.242 19.1914C213.242 19.9043 213.405 20.3978 213.678 20.7816C214.005 21.1654 214.386 21.3848 214.985 21.3848C215.367 21.3848 215.694 21.3299 215.857 21.2203V17.053Z" fill="white"/>
<path d="M223.103 21.9331C222.504 22.2072 221.741 22.3717 220.761 22.3717C219.072 22.3717 218.254 21.6041 218.254 20.1236V16.0111H219.507V20.1784C219.507 20.9461 219.943 21.3847 220.761 21.3847C221.251 21.3847 221.632 21.3299 221.85 21.2202V16.066H223.103V21.9331Z" fill="white"/>
<path d="M228.279 21.9879C227.843 22.262 227.298 22.4265 226.699 22.4265C225.936 22.4265 225.337 22.1524 224.792 21.6589C224.247 21.0557 223.92 20.2332 223.92 19.1914C223.92 18.1496 224.193 17.3271 224.792 16.7239C225.283 16.2304 225.936 15.9563 226.699 15.9563C227.353 15.9563 227.843 16.1208 228.279 16.3949L227.843 17.3271C227.571 17.1078 227.244 16.9981 226.808 16.9981C226.372 16.9981 225.991 17.1626 225.718 17.5464C225.391 17.9302 225.228 18.4786 225.228 19.2462C225.228 19.9591 225.391 20.5074 225.718 20.8912C225.991 21.275 226.372 21.4395 226.808 21.4395C227.189 21.4395 227.571 21.3299 227.843 21.1105L228.279 21.9879Z" fill="white"/>
<path d="M233.673 21.9331C233.128 22.2073 232.365 22.3718 231.439 22.3718C229.641 22.3718 228.769 21.7138 228.769 20.3978C228.769 19.6301 229.151 19.027 229.913 18.698C230.458 18.4238 231.33 18.3142 232.474 18.2593V17.8755C232.474 17.1627 232.038 16.8337 231.167 16.8337C230.567 16.8337 229.968 16.9433 229.423 17.2175L229.096 16.3402C229.75 16.066 230.458 15.9015 231.276 15.9015C232.855 15.9015 233.673 16.6143 233.673 18.04V21.9331ZM232.474 19.1367C231.657 19.1915 231.058 19.2463 230.731 19.4108C230.186 19.6301 229.913 19.9591 229.913 20.4526C229.913 21.1655 230.404 21.4945 231.385 21.4945C231.875 21.4945 232.202 21.4396 232.474 21.33V19.1367Z" fill="white"/>
<path d="M237.704 22.2072C237.486 22.3169 237.269 22.3717 236.942 22.3717C235.798 22.3717 235.253 21.7686 235.253 20.5623V16.9981H234.435V16.066H235.253V14.6403L236.506 14.2565V16.066H237.759V16.9981H236.506V20.5074C236.506 21.0558 236.778 21.2751 237.323 21.2751C237.486 21.2751 237.65 21.2751 237.759 21.2203V22.2072H237.704Z" fill="white"/>
<path d="M239.611 14.6403C239.448 14.8048 239.284 14.8596 239.066 14.8596C238.849 14.8596 238.685 14.8048 238.522 14.6403C238.358 14.4758 238.304 14.3113 238.304 14.1468C238.304 13.9823 238.358 13.763 238.522 13.6533C238.685 13.4888 238.849 13.434 239.066 13.434C239.284 13.434 239.448 13.4888 239.611 13.6533C239.775 13.8178 239.829 13.9823 239.829 14.1468C239.829 14.3113 239.775 14.5306 239.611 14.6403ZM238.467 16.0111H239.72V22.2621H238.467V16.0111Z" fill="white"/>
<path d="M245.386 21.4396C244.896 22.0428 244.242 22.3718 243.371 22.3718C242.499 22.3718 241.845 22.0428 241.355 21.4396C240.864 20.8365 240.646 20.0688 240.646 19.1367C240.646 18.1497 240.864 17.382 241.355 16.8337C241.845 16.2305 242.499 15.9015 243.371 15.9015C244.242 15.9015 244.896 16.2305 245.386 16.8337C245.877 17.4368 246.095 18.2045 246.095 19.1367C246.095 20.0688 245.877 20.8913 245.386 21.4396ZM244.46 17.4917C244.188 17.1078 243.861 16.8885 243.371 16.8885C242.88 16.8885 242.553 17.1078 242.281 17.4917C242.008 17.8755 241.899 18.4238 241.899 19.1367C241.899 19.8495 242.008 20.343 242.281 20.7816C242.553 21.1655 242.88 21.3848 243.371 21.3848C243.861 21.3848 244.188 21.1655 244.46 20.7816C244.733 20.3978 244.842 19.8495 244.842 19.1367C244.842 18.4238 244.733 17.8755 244.46 17.4917Z" fill="white"/>
<path d="M250.671 22.2621V18.0948C250.671 17.3272 250.235 16.8885 249.364 16.8885C248.928 16.8885 248.546 16.9433 248.219 17.053V22.2073H246.966V16.3402C247.675 16.066 248.492 15.9015 249.364 15.9015C251.107 15.9015 251.924 16.6143 251.924 17.9852V22.2621H250.671V22.2621Z" fill="white"/>
</svg>
