<svg width="350" height="70" viewBox="0 0 350 70" fill="none" xmlns="http://www.w3.org/2000/svg">
<path d="M110.482 47.4257C110.482 48.0112 109.967 48.5316 109.387 48.5316H1.09516C0.515369 48.5316 0 48.0762 0 47.4257V38.513C0 37.9275 0.450948 37.4071 1.09516 37.4071H109.451C110.031 37.4071 110.547 37.8625 110.547 38.513V47.4257H110.482Z" fill="#FAAE2D"/>
<path d="M110.547 37.9926C110.547 38.7082 109.967 39.2937 109.258 39.2937H1.35291C0.644274 39.2937 0.0644836 38.7082 0.0644836 37.9926V2.79742C0.0644836 2.08181 0.644274 1.49631 1.35291 1.49631H109.323C110.031 1.49631 110.611 2.08181 110.611 2.79742V37.9926H110.547Z" fill="#231F20"/>
<path d="M106.102 36.6914H4.5094C3.73635 36.6914 3.15656 36.0409 3.15656 35.3253V5.39962C3.15656 4.61895 3.80077 4.03345 4.5094 4.03345H106.102C106.875 4.03345 107.454 4.68401 107.454 5.39962V35.3253C107.519 36.1059 106.875 36.6914 106.102 36.6914ZM4.5094 4.16356C3.86519 4.16356 3.34982 4.684 3.34982 5.33456V35.2602C3.34982 35.9108 3.86519 36.4312 4.5094 36.4312H106.102C106.746 36.4312 107.261 35.9108 107.261 35.2602V5.33456C107.261 4.684 106.746 4.16356 106.102 4.16356H4.5094V4.16356Z" fill="#D0D1D2"/>
<path d="M25.2531 23.6152C25.2531 24.2658 24.7377 24.7862 24.0935 24.7862H8.05266C7.40845 24.7862 6.89308 24.2658 6.89308 23.6152V8.65242C6.89308 8.00186 7.40845 7.48141 8.05266 7.48141H24.0935C24.7377 7.48141 25.2531 8.00186 25.2531 8.65242V23.6152V23.6152Z" fill="#FAAE2D"/>
<path d="M14.3015 16.8495C13.8505 16.9796 13.2063 17.1097 12.6265 17.1097C9.53431 17.1097 8.37473 14.8327 8.37473 12.9461C8.37473 11.1896 9.59873 8.8476 12.6909 8.8476C15.2034 8.8476 16.9427 10.4089 16.9427 12.8811C16.9427 14.7677 15.7832 15.9387 15.1389 16.329L17.2648 17.435C19.4552 18.606 20.8724 18.671 21.5811 18.671C22.0964 18.671 22.8695 18.606 23.6425 18.2807C23.707 18.2807 23.7714 18.2156 23.7714 18.2156C23.8358 18.2156 23.8358 18.2807 23.8358 18.2807C23.8358 18.3457 23.7714 18.3457 23.707 18.4108C23.0627 18.7361 21.9032 19.1915 20.3571 19.1915C18.7465 19.1915 17.6514 18.8011 15.912 17.7602L14.3015 16.8495ZM15.4611 13.1413C15.4611 10.6041 13.9149 9.36804 12.4333 9.36804C11.0804 9.36804 9.85641 10.2788 9.85641 12.6859C9.85641 15.2231 11.3381 16.5892 13.0775 16.5892C13.9149 16.6543 15.4611 16.264 15.4611 13.1413Z" fill="white"/>
<path d="M18.7466 16.8494C18.5533 16.7844 18.5533 16.7193 18.5533 16.4591C18.5533 15.8736 18.6178 15.223 18.6178 15.0929C18.6178 14.9628 18.6822 14.8327 18.7466 14.8327C18.811 14.8327 18.8755 14.8978 18.8755 15.0279C18.8755 15.158 18.9399 15.4182 18.9399 15.5483C19.1976 16.329 19.7773 16.5892 20.4216 16.5892C21.3879 16.5892 21.8388 15.9387 21.8388 15.3532C21.8388 14.8327 21.71 14.3123 20.8081 13.6617L20.3571 13.2714C19.1976 12.3606 18.811 11.645 18.811 10.7342C18.811 9.56319 19.7773 8.71747 21.259 8.71747C21.9677 8.71747 22.3542 8.84758 22.6763 8.91264C22.7407 8.91264 22.8051 8.97769 22.8051 9.04275C22.8051 9.17286 22.7407 9.49814 22.7407 10.3439C22.7407 10.6041 22.7407 10.6691 22.6119 10.6691C22.5475 10.6691 22.483 10.6041 22.483 10.474C22.483 10.4089 22.4186 10.0186 22.2253 9.75836C22.0965 9.56319 21.7744 9.23791 21.0658 9.23791C20.2927 9.23791 19.8418 9.6933 19.8418 10.3439C19.8418 10.7993 20.0995 11.1896 20.9369 11.8401L21.259 12.0353C22.483 13.0111 22.9984 13.7268 22.9984 14.7026C22.9984 15.2881 22.7407 16.0688 22.0321 16.5242C21.5167 16.8494 20.9369 16.9796 20.3571 16.9796C19.6485 17.1747 19.1976 17.1097 18.7466 16.8494Z" fill="white"/>
<path d="M23.7714 22.8996C23.7714 23.0948 20.3571 23.2899 16.1697 23.2899C11.9824 23.2899 8.56804 23.0948 8.56804 22.8996C8.56804 22.7044 11.9824 22.5093 16.1697 22.5093C20.3571 22.5093 23.7714 22.7044 23.7714 22.8996Z" fill="#808184"/>
<path d="M7.9882 31.552V33.5037L8.76126 33.6338V33.829H6.63536V33.6338L7.21515 33.5037V29.0149L6.57094 28.8847V28.6896H8.76126C9.14778 28.6896 9.40547 28.6896 9.66315 28.7546C9.92084 28.8197 10.1141 28.8847 10.2429 29.0149C10.3718 29.145 10.5006 29.2751 10.565 29.4702C10.6295 29.6654 10.6295 29.8606 10.6295 30.0557C10.6295 30.2509 10.6295 30.4461 10.565 30.5762C10.5006 30.7063 10.4362 30.8364 10.3074 30.9665C10.2429 31.0966 10.1141 31.1617 9.98526 31.2918C9.85642 31.3569 9.72757 31.4219 9.59873 31.487L10.9516 33.5688L11.5314 33.6989V33.829H10.3074L8.8901 31.552H7.9882ZM9.92084 30.1208C9.92084 29.9256 9.92084 29.7305 9.85642 29.6004C9.792 29.4702 9.72757 29.3401 9.59873 29.2751C9.46989 29.21 9.34105 29.145 9.21221 29.0799C9.08336 29.0149 8.8901 29.0149 8.63241 29.0149H7.9882V31.2268H8.63241C8.8901 31.2268 9.08336 31.2268 9.21221 31.1617C9.34105 31.0966 9.46989 31.0316 9.59873 30.9665C9.72757 30.9015 9.792 30.7714 9.792 30.6412C9.92084 30.4461 9.92084 30.316 9.92084 30.1208Z" fill="white"/>
<path d="M13.5284 33.6338V33.829H11.8534V33.6338L12.4332 33.5037L14.1726 28.6245H14.8812L16.685 33.5037L17.3292 33.6338V33.829H15.2033V33.6338L15.912 33.5037L15.3966 32.0074H13.3995L12.8842 33.5037L13.5284 33.6338ZM14.3659 29.21L13.464 31.6822H15.2033L14.3659 29.21Z" fill="white"/>
<path d="M17.9735 33.829V33.6338L18.811 33.5037V29.0149H18.6177C18.2956 29.0149 18.0379 29.0149 17.7802 29.0149C17.587 29.0149 17.3937 29.0799 17.3293 29.0799L17.2004 29.8606H16.9428V28.6245H21.3878V29.8606H21.1301L21.0013 29.0799C20.9369 29.0799 20.8725 29.0799 20.808 29.0799C20.7436 29.0799 20.6148 29.0799 20.4859 29.0799C20.3571 29.0799 20.2282 29.0799 20.0994 29.0799C19.9706 29.0799 19.8417 29.0799 19.6485 29.0799H19.4552V33.5688L20.2927 33.6989V33.829H17.9735Z" fill="white"/>
<path d="M21.9032 33.6338L22.5474 33.5037V29.0149L21.9032 28.8847V28.6896H25.7685V29.9256H25.5108L25.382 29.0799C25.3175 29.0799 25.1887 29.0799 25.0599 29.0799C24.931 29.0799 24.8022 29.0799 24.7377 29.0799C24.6089 29.0799 24.4801 29.0799 24.4156 29.0799C24.2868 29.0799 24.2224 29.0799 24.158 29.0799H23.3205V31.0966H24.6733L24.8022 30.5111H25.0599V32.0725H24.8022L24.6733 31.4219H23.3205V33.5037H24.3512C24.4801 33.5037 24.6733 33.5037 24.8022 33.5037C24.931 33.5037 25.0598 33.5037 25.1887 33.5037C25.3175 33.5037 25.382 33.5037 25.4464 33.5037C25.5108 33.5037 25.5752 33.5037 25.6396 33.5037L25.8329 32.5279H26.0906L25.9617 33.829H21.9032V33.6338Z" fill="white"/>
<path d="M29.1828 28.6896C29.6337 28.6896 29.9558 28.7546 30.3424 28.8197C30.6645 28.8847 30.9866 29.0799 31.1799 29.2751C31.4375 29.4702 31.6308 29.7305 31.7596 30.0557C31.8885 30.381 31.9529 30.7714 31.9529 31.2268C31.9529 31.6171 31.8885 32.0074 31.8241 32.3327C31.6952 32.658 31.5664 32.9182 31.3731 33.1784C31.1799 33.3736 30.8577 33.5688 30.5356 33.6989C30.2135 33.829 29.827 33.894 29.3761 33.894C29.2472 33.894 29.054 33.894 28.9251 33.894C28.7318 33.894 28.603 33.894 28.4097 33.894C28.2165 33.894 28.0876 33.894 27.9588 33.894C27.83 33.894 27.7011 33.894 27.5723 33.894H26.9281V33.6989L27.5723 33.5688V29.0799L26.9281 28.9498V28.7546H29.1828V28.6896ZM31.1799 31.2268C31.1799 30.8364 31.1154 30.5111 31.051 30.2509C30.9222 29.9907 30.7933 29.7305 30.6001 29.6004C30.4068 29.4052 30.1491 29.2751 29.8914 29.21C29.6337 29.145 29.3116 29.0799 28.9895 29.0799H28.2809V33.5037C28.3453 33.5037 28.4097 33.5037 28.5386 33.5037C28.603 33.5037 28.7318 33.5037 28.7963 33.5037C28.8607 33.5037 28.9895 33.5037 29.054 33.5037H29.3116C29.6337 33.5037 29.8914 33.4386 30.1491 33.3736C30.4068 33.3085 30.5356 33.1134 30.7289 32.9182C30.8577 32.723 30.9866 32.4628 31.051 32.2026C31.1154 31.9424 31.1799 31.6171 31.1799 31.2268Z" fill="white"/>
<path d="M36.2691 31.487V33.5037L37.1066 33.6338V33.829H34.9163V33.6338L35.4961 33.5037V29.0149L34.8519 28.8847V28.6896H38.6527V29.9256H38.395L38.2662 29.0799C38.2018 29.0799 38.0729 29.0799 37.9441 29.0799C37.8153 29.0799 37.6864 29.0799 37.622 29.0799C37.4932 29.0799 37.3643 29.0799 37.2999 29.0799C37.171 29.0799 37.1066 29.0799 37.0422 29.0799H36.2047V31.2268H37.6864L37.8153 30.6412H38.0729V32.2026H37.8153L37.6864 31.552H36.2691V31.487Z" fill="white"/>
<path d="M39.4902 31.2268C39.4902 30.7714 39.5546 30.381 39.6835 30.0558C39.8123 29.7305 39.9411 29.4703 40.1344 29.21C40.3277 29.0149 40.5853 28.8197 40.9075 28.7547C41.2296 28.6245 41.5517 28.6245 41.9382 28.6245C42.3247 28.6245 42.6468 28.6896 42.9689 28.7547C43.291 28.8848 43.5487 29.0149 43.742 29.21C43.9352 29.4052 44.1285 29.6654 44.2573 30.0558C44.3862 30.381 44.4506 30.7714 44.4506 31.2268C44.4506 31.6822 44.3862 32.0725 44.2573 32.3978C44.1285 32.7231 43.9997 32.9833 43.742 33.2435C43.4843 33.5037 43.291 33.6338 42.9689 33.6989C42.6468 33.829 42.3247 33.829 41.9382 33.829C41.5517 33.829 41.2296 33.7639 40.9075 33.6989C40.5853 33.5688 40.3277 33.4387 40.1344 33.2435C39.9411 33.0483 39.7479 32.7231 39.619 32.3978C39.5546 32.0725 39.4902 31.6822 39.4902 31.2268ZM40.2632 31.2268C40.2632 31.6171 40.2632 31.8773 40.3277 32.2026C40.3921 32.4628 40.4565 32.7231 40.5853 32.9182C40.7142 33.1134 40.9075 33.3086 41.1007 33.3736C41.294 33.5037 41.6161 33.5688 41.9382 33.5688C42.2603 33.5688 42.518 33.5037 42.7757 33.3736C42.9689 33.2435 43.1622 33.1134 43.291 32.9182C43.4199 32.7231 43.4843 32.4628 43.5487 32.2026C43.6131 31.9424 43.6131 31.6171 43.6131 31.2268C43.6131 30.9015 43.6131 30.5762 43.5487 30.2509C43.4843 29.9907 43.4199 29.7305 43.291 29.5353C43.1622 29.3402 42.9689 29.21 42.7757 29.0799C42.5824 28.9498 42.2603 28.9498 41.9382 28.9498C41.6161 28.9498 41.3584 29.0149 41.1007 29.0799C40.9075 29.21 40.7142 29.3402 40.5853 29.5353C40.4565 29.7305 40.3921 29.9907 40.3277 30.2509C40.3277 30.5762 40.2632 30.9015 40.2632 31.2268Z" fill="white"/>
<path d="M46.5765 31.552V33.5037L47.3496 33.6338V33.829H45.2237V33.6338L45.8035 33.5037V29.0149L45.1592 28.8847V28.6896H47.3496C47.7361 28.6896 47.9938 28.6896 48.2515 28.7546C48.5091 28.8197 48.7024 28.8847 48.8312 29.0149C48.9601 29.145 49.0889 29.2751 49.1534 29.4702C49.2178 29.6654 49.2178 29.8606 49.2178 30.0557C49.2178 30.2509 49.2178 30.4461 49.1534 30.5762C49.0889 30.7063 49.0245 30.8364 48.8957 30.9665C48.8312 31.0966 48.7024 31.1617 48.5736 31.2918C48.4447 31.3569 48.3159 31.4219 48.187 31.487L49.5399 33.5688L50.1197 33.6989V33.829H48.9601L47.5428 31.552H46.5765ZM48.5091 30.1208C48.5091 29.9256 48.5091 29.7305 48.4447 29.6004C48.3803 29.4702 48.3159 29.3401 48.187 29.2751C48.0582 29.21 47.9293 29.145 47.8005 29.0799C47.6717 29.0149 47.4784 29.0149 47.2207 29.0149H46.5765V31.2268H47.2207C47.4784 31.2268 47.6717 31.2268 47.8005 31.1617C47.9293 31.0966 48.1226 31.0316 48.187 30.9665C48.3159 30.9015 48.3803 30.7714 48.3803 30.6412C48.5091 30.4461 48.5091 30.316 48.5091 30.1208Z" fill="white"/>
<path d="M52.7609 33.6338L53.4051 33.5037V29.0149L52.7609 28.8847V28.6896H56.5617V29.9256H56.3041L56.1752 29.0799C56.1108 29.0799 55.9819 29.0799 55.8531 29.0799C55.7243 29.0799 55.5954 29.0799 55.531 29.0799C55.4022 29.0799 55.2733 29.0799 55.2089 29.0799C55.0801 29.0799 55.0156 29.0799 54.9512 29.0799H54.1137V31.0966H55.4666L55.5954 30.5111H55.8531V32.0725H55.5954L55.4666 31.4219H54.1137V33.5037H55.1445C55.2733 33.5037 55.4666 33.5037 55.5954 33.5037C55.7243 33.5037 55.8531 33.5037 55.9819 33.5037C56.1108 33.5037 56.1752 33.5037 56.2396 33.5037C56.3041 33.5037 56.3685 33.5037 56.4329 33.5037L56.6262 32.5279H56.8838L56.8194 33.829H52.7609V33.6338Z" fill="white"/>
<path d="M58.6876 33.5037L59.3318 33.6338V33.829H57.6569V33.6338L58.2367 33.5037L59.976 31.1617L58.4944 28.9498L57.9146 28.8847V28.6896H59.976V28.8847L59.3318 28.9498L60.427 30.5762L61.5866 28.9498L60.9424 28.8847V28.6896H62.6173V28.8847L62.0375 28.9498L60.6203 30.9015L62.3596 33.5037L62.9394 33.6338V33.829H60.8779V33.6338L61.5222 33.5037L60.1693 31.487L58.6876 33.5037Z" fill="white"/>
<path d="M66.2249 33.8941C65.8384 33.8941 65.4518 33.829 65.1297 33.6989C64.8076 33.5688 64.5499 33.4387 64.2922 33.1784C64.099 32.9833 63.9057 32.658 63.7769 32.3978C63.648 32.0725 63.5836 31.7472 63.5836 31.2918C63.5836 30.8364 63.648 30.4461 63.7769 30.1208C63.9057 29.7955 64.0346 29.5353 64.2922 29.2751C64.4855 29.0799 64.8076 28.8848 65.1297 28.7547C65.4518 28.6245 65.8384 28.6245 66.2249 28.6245C66.4181 28.6245 66.547 28.6245 66.7402 28.6245C66.8691 28.6245 67.0624 28.6245 67.1912 28.6896C67.32 28.6896 67.4489 28.7547 67.5777 28.7547C67.7066 28.7547 67.8354 28.8197 67.9643 28.8197V29.9257H67.7066L67.5777 29.2751C67.3845 29.145 67.1912 29.0799 66.9335 29.0149C66.6758 28.9498 66.4826 28.9498 66.2249 28.9498C65.9028 28.9498 65.6451 29.0149 65.4518 29.0799C65.1941 29.145 65.0009 29.2751 64.872 29.4703C64.7432 29.6654 64.6143 29.9257 64.4855 30.1859C64.4211 30.5112 64.3567 30.8364 64.3567 31.2918C64.3567 31.6822 64.4211 32.0074 64.4855 32.3327C64.5499 32.5929 64.6788 32.8532 64.872 33.0483C65.0009 33.2435 65.1941 33.3736 65.4518 33.5037C65.6451 33.5688 65.9028 33.6338 66.2249 33.6338C66.3537 33.6338 66.547 33.6338 66.6758 33.6338C66.8047 33.6338 66.9335 33.5688 67.0624 33.5688C67.1912 33.5037 67.32 33.5037 67.3845 33.4387C67.4489 33.3736 67.5777 33.3736 67.6421 33.3086L67.771 32.5279H68.0287V33.7639C67.8998 33.7639 67.771 33.829 67.6421 33.829C67.5133 33.829 67.3845 33.8941 67.1912 33.8941C67.0624 33.8941 66.8691 33.9591 66.6758 33.9591C66.6114 33.8941 66.4181 33.8941 66.2249 33.8941Z" fill="white"/>
<path d="M68.9306 33.6338L69.5748 33.5037V29.0149L68.9306 28.8847V28.6896H72.7314V29.9256H72.4738L72.3449 29.0799C72.2805 29.0799 72.1517 29.0799 72.0228 29.0799C71.894 29.0799 71.7651 29.0799 71.7007 29.0799C71.5719 29.0799 71.443 29.0799 71.3786 29.0799C71.2498 29.0799 71.1853 29.0799 71.1209 29.0799H70.2834V31.0966H71.6363L71.7651 30.5111H72.0228V32.0725H71.7651L71.6363 31.4219H70.2834V33.5037H71.2498C71.3786 33.5037 71.5719 33.5037 71.7007 33.5037C71.8296 33.5037 71.9584 33.5037 72.0872 33.5037C72.2161 33.5037 72.2805 33.5037 72.3449 33.5037C72.4093 33.5037 72.4738 33.5037 72.5382 33.5037L72.7314 32.5279H72.9891L72.9247 33.894H68.9306V33.6338Z" fill="white"/>
<path d="M76.0813 28.8848L75.3083 29.0149V33.5037H76.339C76.6611 33.5037 76.9188 33.5037 77.1121 33.5037C77.3053 33.5037 77.4342 33.5037 77.4986 33.4387L77.7563 32.3978H78.014L77.9495 33.894H73.9554V33.6989L74.5997 33.5688V29.0799L73.9554 28.9498V28.7546H76.1458V28.8848H76.0813Z" fill="white"/>
<path d="M80.9773 28.8848L80.2043 29.0149V33.5037H81.235C81.5571 33.5037 81.8148 33.5037 82.0081 33.5037C82.2013 33.5037 82.3302 33.5037 82.3946 33.4387L82.6523 32.3978H82.9099L82.8455 33.894H78.8514V33.6989L79.4956 33.5688V29.0799L78.8514 28.9498V28.7546H81.0417V28.8848H80.9773Z" fill="white"/>
<path d="M83.8119 33.6338L84.4561 33.5037V29.0149L83.8119 28.8847V28.6896H87.6128V29.9256H87.3551L87.2262 29.0799C87.1618 29.0799 87.033 29.0799 86.9041 29.0799C86.7753 29.0799 86.6464 29.0799 86.582 29.0799C86.4532 29.0799 86.3243 29.0799 86.2599 29.0799C86.1311 29.0799 86.0667 29.0799 86.0022 29.0799H85.1648V31.0966H86.5176L86.6464 30.5111H86.9041V32.0725H86.6464L86.5176 31.4219H85.1648V33.5037H86.1955C86.3243 33.5037 86.5176 33.5037 86.6464 33.5037C86.7753 33.5037 86.9041 33.5037 87.033 33.5037C87.1618 33.5037 87.2262 33.5037 87.2907 33.5037C87.3551 33.5037 87.4195 33.5037 87.4839 33.5037L87.6772 32.5279H87.9349L87.8704 33.894H83.8119V33.6338Z" fill="white"/>
<path d="M92.8953 28.9498L92.2511 28.8847V28.6896H93.926V28.8847L93.2818 28.9498V33.829H92.9597L89.8031 29.21V33.5037L90.5117 33.6338V33.829H88.7724V33.6338L89.4166 33.5037V28.9498L88.7724 28.8847V28.6896H90.3185L92.8953 32.4628V28.9498Z" fill="white"/>
<path d="M97.2759 33.8941C96.8893 33.8941 96.5028 33.829 96.1807 33.6989C95.8586 33.5688 95.6009 33.4387 95.3432 33.1784C95.0855 32.9833 94.9567 32.658 94.8278 32.3978C94.699 32.0725 94.6346 31.7472 94.6346 31.2918C94.6346 30.8364 94.699 30.4461 94.8278 30.1208C94.9567 29.7955 95.0855 29.5353 95.3432 29.2751C95.5365 29.0799 95.8586 28.8848 96.1807 28.7547C96.5028 28.6245 96.8893 28.6245 97.2759 28.6245C97.4691 28.6245 97.598 28.6245 97.7912 28.6245C97.9201 28.6245 98.1133 28.6245 98.2422 28.6896C98.371 28.6896 98.4999 28.7547 98.6287 28.7547C98.7576 28.7547 98.8864 28.8197 99.0152 28.8197V29.9257H98.7576L98.6287 29.2751C98.4355 29.145 98.2422 29.0799 97.9845 29.0149C97.7268 28.9498 97.5336 28.9498 97.2759 28.9498C96.9538 28.9498 96.6961 29.0149 96.5028 29.0799C96.2451 29.145 96.0519 29.2751 95.923 29.4703C95.7942 29.6654 95.6653 29.9257 95.5365 30.1859C95.4721 30.5112 95.4076 30.8364 95.4076 31.2918C95.4076 31.6822 95.4721 32.0074 95.5365 32.3327C95.6009 32.5929 95.7297 32.8532 95.923 33.0483C96.0519 33.2435 96.2451 33.3736 96.5028 33.5037C96.6961 33.5688 96.9538 33.6338 97.2759 33.6338C97.4047 33.6338 97.598 33.6338 97.7268 33.6338C97.8557 33.6338 97.9845 33.5688 98.1133 33.5688C98.2422 33.5037 98.371 33.5037 98.4355 33.4387C98.4999 33.3736 98.6287 33.3736 98.6931 33.3086L98.822 32.5279H99.0797V33.7639C98.9508 33.7639 98.822 33.829 98.6931 33.829C98.5643 33.829 98.4354 33.8941 98.2422 33.8941C98.1133 33.8941 97.9201 33.9591 97.7268 33.9591C97.598 33.8941 97.4691 33.8941 97.2759 33.8941Z" fill="white"/>
<path d="M99.9816 33.6338L100.626 33.5037V29.0149L99.9816 28.8847V28.6896H103.782V29.9256H103.525L103.396 29.0799C103.331 29.0799 103.203 29.0799 103.074 29.0799C102.945 29.0799 102.816 29.0799 102.752 29.0799C102.623 29.0799 102.494 29.0799 102.43 29.0799C102.301 29.0799 102.236 29.0799 102.172 29.0799H101.334V31.0966H102.687L102.816 30.5111H103.074V32.0725H102.816L102.687 31.4219H101.334V33.5037H102.365C102.494 33.5037 102.687 33.5037 102.816 33.5037C102.945 33.5037 103.074 33.5037 103.203 33.5037C103.331 33.5037 103.396 33.5037 103.46 33.5037C103.525 33.5037 103.589 33.5037 103.654 33.5037L103.847 32.5279H104.105L104.04 33.894H99.9816V33.6338Z" fill="white"/>
<path d="M31.1798 19.9071H31.9528L32.4038 22.119C32.5326 22.3142 32.7903 22.5093 33.048 22.7045C33.3057 22.8997 33.6278 23.0298 33.9499 23.1599C34.272 23.29 34.6585 23.4201 35.0451 23.4852C35.4316 23.5502 35.7537 23.6153 36.1402 23.6153C36.7844 23.6153 37.2998 23.5502 37.7507 23.355C38.2017 23.1599 38.5882 22.9647 38.8459 22.6394C39.168 22.3142 39.3613 21.9889 39.4901 21.5985C39.619 21.2082 39.6834 20.7528 39.6834 20.2974C39.6834 19.7119 39.5545 19.1915 39.2968 18.8662C39.0392 18.4759 38.7171 18.1506 38.3305 17.8904C37.944 17.6301 37.4931 17.3699 36.9777 17.2398C36.4623 17.0446 35.947 16.8495 35.4316 16.6543C34.9162 16.4591 34.3364 16.264 33.8211 16.0037C33.3057 15.7435 32.8547 15.4833 32.4682 15.158C32.0817 14.8327 31.7596 14.3773 31.5019 13.8569C31.2442 13.3365 31.1154 12.6859 31.1154 11.9052C31.1154 11.2547 31.2442 10.6692 31.5019 10.1487C31.7596 9.62828 32.0817 9.17289 32.5971 8.84761C33.048 8.45727 33.6278 8.19705 34.3364 8.00188C35.0451 7.80672 35.8181 7.67661 36.6556 7.67661C37.4286 7.67661 38.2017 7.74166 38.9747 7.80672C39.6834 7.93683 40.392 8.06694 40.9718 8.19705V11.645H40.1987L39.7478 9.62828C39.3613 9.36806 38.9747 9.17289 38.4594 8.97772C37.944 8.78255 37.3642 8.7175 36.72 8.7175C36.1402 8.7175 35.6248 8.78255 35.1739 8.91266C34.723 9.04278 34.4008 9.23794 34.0787 9.43311C33.8211 9.62828 33.5634 9.95356 33.4345 10.2138C33.3057 10.5391 33.2413 10.8643 33.2413 11.1896C33.2413 11.7101 33.3701 12.1655 33.6278 12.4907C33.8855 12.816 34.2076 13.1413 34.5941 13.4015C34.9806 13.6617 35.4316 13.8569 35.947 14.0521C36.4623 14.2472 36.9777 14.4424 37.5575 14.6376C38.0728 14.8327 38.6526 15.0279 39.168 15.2881C39.6834 15.5484 40.1343 15.8086 40.5209 16.1989C40.9074 16.5892 41.2295 17.0446 41.4872 17.5651C41.7449 18.0855 41.8737 18.7361 41.8737 19.5818C41.8737 20.3625 41.7448 21.013 41.5516 21.6636C41.2939 22.2491 40.9718 22.8346 40.5209 23.2249C40.0699 23.6803 39.4901 24.0056 38.7815 24.2658C38.0728 24.526 37.2354 24.5911 36.3335 24.5911C35.8181 24.5911 35.3027 24.5911 34.8518 24.526C34.3364 24.461 33.8855 24.3959 33.499 24.3309C33.048 24.2658 32.6615 24.1357 32.275 24.0707C31.8884 23.9405 31.5663 23.8755 31.3086 23.7454V19.9071H31.1798Z" fill="white"/>
<path d="M47.1562 24.3308V23.6803L49.7331 23.355V8.91263H49.0889C47.9937 8.91263 47.1562 8.91263 46.3832 8.97768C45.6745 9.04274 45.1592 9.10779 44.8371 9.17285L44.515 11.7751H43.8063V7.87173H58.1722V11.7751H57.3348L57.0127 9.17285C56.8838 9.10779 56.6261 9.10779 56.3685 9.10779C56.1108 9.10779 55.7242 9.04274 55.3377 9.04274C54.9512 9.04274 54.5647 8.97768 54.1137 8.97768C53.6628 8.97768 53.2118 8.97768 52.7609 8.97768H52.1811V23.4201L54.7579 23.7453V24.3959H47.1562V24.3308Z" fill="white"/>
<path d="M62.2308 23.6803V24.3309H56.8839V23.6803L58.7521 23.355L64.2923 7.67661H66.6114L72.4093 23.355L74.4708 23.6803V24.3309H67.5778V23.6803L69.7681 23.355L68.1575 18.606H61.7154L60.0405 23.355L62.2308 23.6803ZM64.8076 9.49817L62.0375 17.5H67.7066L64.8076 9.49817Z" fill="white"/>
<path d="M79.7533 17.1097V23.355L82.2014 23.6803V24.3308H75.4371V23.6803L77.3698 23.355V8.84757L75.2439 8.52229V7.87173H82.3302C83.4898 7.87173 84.4561 8.00185 85.2291 8.19701C86.0022 8.39218 86.582 8.71746 87.0974 9.10779C87.5483 9.49813 87.8704 9.95352 88.0637 10.474C88.2569 10.9944 88.3858 11.645 88.3858 12.2955C88.3858 12.9461 88.3214 13.4665 88.1281 13.987C87.9348 14.5074 87.6772 14.8978 87.4195 15.2881C87.0974 15.6784 86.7753 16.0037 86.3243 16.1989C85.9378 16.4591 85.4868 16.6543 85.0359 16.7844L89.4809 23.355L91.2203 23.6803V24.3308H87.2906L82.7167 17.1097H79.7533V17.1097ZM85.9378 12.4256C85.9378 11.7751 85.8734 11.1896 85.6801 10.7992C85.5513 10.3439 85.2936 10.0186 84.9715 9.75835C84.6494 9.49813 84.1984 9.30296 83.683 9.17285C83.1677 9.04274 82.5235 8.97768 81.8148 8.97768H79.7533V16.0037H81.8792C82.6523 16.0037 83.2321 15.9386 83.7475 15.8085C84.2628 15.6784 84.6494 15.4833 84.9715 15.158C85.2936 14.8978 85.4868 14.5074 85.6801 14.052C85.8734 13.5966 85.9378 13.0762 85.9378 12.4256Z" fill="white"/>
<path d="M92.9597 19.9071H93.7327L94.1837 22.119C94.3125 22.3142 94.5702 22.5093 94.8279 22.7045C95.0856 22.8997 95.4077 23.0298 95.7298 23.1599C96.0519 23.29 96.4384 23.4201 96.8249 23.4852C97.2115 23.5502 97.5336 23.6153 97.9201 23.6153C98.5643 23.6153 99.0797 23.5502 99.5306 23.355C99.9816 23.1599 100.368 22.9647 100.69 22.6394C101.012 22.3142 101.206 21.9889 101.334 21.5985C101.463 21.2082 101.528 20.7528 101.528 20.2974C101.528 19.7119 101.399 19.1915 101.141 18.8662C100.883 18.4759 100.561 18.1506 100.175 17.8904C99.7883 17.6301 99.3374 17.3699 98.822 17.2398C98.3066 17.0446 97.7913 16.8495 97.2759 16.6543C96.7605 16.4591 96.1807 16.264 95.7298 16.0037C95.2144 15.7435 94.7635 15.4833 94.3769 15.158C93.9904 14.8327 93.6683 14.3773 93.4106 13.8569C93.1529 13.3365 93.0241 12.6859 93.0241 11.9052C93.0241 11.2547 93.1529 10.6692 93.4106 10.1487C93.6683 9.62828 93.9904 9.17289 94.5058 8.84761C94.9567 8.45727 95.5365 8.19705 96.2451 8.00188C96.9538 7.80672 97.7268 7.67661 98.5643 7.67661C99.3374 7.67661 100.11 7.74166 100.883 7.80672C101.592 7.93683 102.301 8.06694 102.881 8.19705V11.645H102.107L101.657 9.62828C101.27 9.36806 100.883 9.17289 100.368 8.97772C99.8527 8.78255 99.2729 8.7175 98.6287 8.7175C98.0489 8.7175 97.5336 8.78255 97.0826 8.91266C96.6317 9.04278 96.3096 9.23794 95.9875 9.43311C95.7298 9.62828 95.4721 9.95356 95.3433 10.2138C95.2144 10.5391 95.15 10.8643 95.15 11.1896C95.15 11.7101 95.2788 12.1655 95.5365 12.4907C95.7942 12.816 96.1163 13.1413 96.5028 13.4015C96.8894 13.6617 97.3403 13.8569 97.8557 14.0521C98.371 14.2472 98.8864 14.4424 99.4662 14.6376C99.9816 14.8327 100.561 15.0279 101.077 15.2881C101.592 15.5484 102.043 15.8086 102.43 16.1989C102.816 16.5892 103.138 17.0446 103.396 17.5651C103.654 18.0855 103.782 18.7361 103.782 19.5818C103.782 20.3625 103.654 21.013 103.46 21.6636C103.203 22.2491 102.881 22.8346 102.43 23.2249C101.979 23.6803 101.399 24.0056 100.69 24.2658C99.9816 24.526 99.1441 24.5911 98.2422 24.5911C97.7268 24.5911 97.2759 24.5911 96.7605 24.526C96.2451 24.461 95.7942 24.3959 95.4077 24.3309C94.9567 24.2658 94.5702 24.1357 94.1837 24.0707C93.7971 23.9405 93.475 23.8755 93.2174 23.7454V19.9071H92.9597Z" fill="white"/>
<path d="M110.482 65.251C110.482 65.9666 109.902 66.6171 109.129 66.6171H1.35284C0.644211 66.6171 0 66.0316 0 65.251V51.0037C0 50.2881 0.57979 49.6376 1.35284 49.6376H109.194C109.902 49.6376 110.547 50.2231 110.547 51.0037V65.251H110.482Z" fill="#231F20"/>
<path d="M40.7142 58.2249L37.8796 57.1189V54.842C37.8796 54.5818 37.622 54.3215 37.3643 54.3215H34.9807L33.8855 51.1989L32.726 54.3215H30.278C30.0203 54.3215 29.7626 54.5818 29.7626 54.842V57.0539L26.9281 58.0948L29.7626 59.2007V61.4777C29.7626 61.7379 30.0203 61.9981 30.278 61.9981H32.6615L33.7567 65.1208L34.9163 61.9981H37.3643C37.622 61.9981 37.8796 61.8029 37.8796 61.4777V59.2658L40.7142 58.2249Z" fill="#FAAE2D"/>
<path d="M32.9836 58.4851C32.7904 58.5502 32.5327 58.6152 32.275 58.6152C30.9222 58.6152 30.4068 57.5744 30.4068 56.7286C30.4068 55.948 30.9222 54.9071 32.275 54.9071C33.3702 54.9071 34.1432 55.5576 34.1432 56.6636C34.1432 57.5093 33.6278 58.0297 33.3057 58.2249L34.2076 58.6803C35.174 59.2007 35.8182 59.2658 36.1403 59.2658C36.398 59.2658 36.7201 59.2008 37.0422 59.0706H37.1066C37.1066 59.0706 37.171 59.0706 37.171 59.1357C37.171 59.1357 37.171 59.2007 37.1066 59.2007C36.8489 59.3309 36.3335 59.526 35.6249 59.526C34.9163 59.526 34.4653 59.3309 33.6923 58.8755L32.9836 58.4851ZM33.499 56.8587C33.499 55.7528 32.7904 55.1673 32.1462 55.1673C31.5664 55.1673 30.9866 55.5576 30.9866 56.6636C30.9866 57.7695 31.6308 58.4201 32.4038 58.4201C32.8548 58.4201 33.499 58.2249 33.499 56.8587Z" fill="white"/>
<path d="M34.9807 58.4851C34.9162 58.4201 34.9162 58.4201 34.9162 58.355C34.9162 58.0948 34.9162 57.8346 34.9162 57.7695C34.9162 57.7045 34.9162 57.6394 34.9807 57.6394C35.0451 57.6394 35.0451 57.7044 35.0451 57.7044C35.0451 57.7695 35.0451 57.8346 35.1095 57.9647C35.2383 58.29 35.496 58.4201 35.7537 58.4201C36.1402 58.4201 36.3979 58.1598 36.3979 57.8996C36.3979 57.6394 36.3335 57.4442 35.947 57.184L35.7537 56.9888C35.2383 56.5985 35.0451 56.2732 35.0451 55.8829C35.0451 55.3624 35.496 54.9721 36.1402 54.9721C36.4623 54.9721 36.6556 55.0372 36.7844 55.0372C36.8489 55.0372 36.8489 55.0372 36.8489 55.1022C36.8489 55.1673 36.8489 55.2974 36.8489 55.6877C36.8489 55.8178 36.8489 55.8178 36.7844 55.8178C36.72 55.8178 36.72 55.8178 36.72 55.7528C36.72 55.6877 36.72 55.5576 36.5912 55.4275C36.5268 55.3624 36.3979 55.1673 36.0758 55.1673C35.7537 55.1673 35.496 55.3624 35.496 55.6227C35.496 55.8178 35.6249 56.013 36.0114 56.2732L36.1402 56.4033C36.72 56.8587 36.9133 57.1189 36.9133 57.5743C36.9133 57.8346 36.7844 58.1598 36.4623 58.4201C36.2047 58.5502 35.947 58.6152 35.7537 58.6152C35.3672 58.6152 35.1739 58.6152 34.9807 58.4851Z" fill="white"/>
<path d="M37.1709 61.1524C37.1709 61.2175 35.6893 61.3476 33.821 61.3476C31.9528 61.3476 30.4711 61.2825 30.4711 61.1524C30.4711 61.0874 31.9528 61.0223 33.821 61.0223C35.6893 61.0223 37.1709 61.0874 37.1709 61.1524Z" fill="#808184"/>
<path d="M62.1663 58.2249L59.3318 57.1189V54.842C59.3318 54.5818 59.0741 54.3215 58.8164 54.3215H56.4329L55.3377 51.1989L54.1781 54.3215H51.7301C51.4724 54.3215 51.2147 54.5818 51.2147 54.842V57.0539L48.3158 58.0948L51.1503 59.2007V61.4777C51.1503 61.7379 51.408 61.9981 51.6657 61.9981H54.1137L55.2089 65.1208L56.3684 61.9981H58.8164C59.0741 61.9981 59.3318 61.8029 59.3318 61.4777V59.2658L62.1663 58.2249Z" fill="#FAAE2D"/>
<path d="M54.4359 58.4851C54.2426 58.5502 53.9849 58.6152 53.7272 58.6152C52.3744 58.6152 51.859 57.5744 51.859 56.7286C51.859 55.948 52.3744 54.9071 53.7272 54.9071C54.8224 54.9071 55.5954 55.5576 55.5954 56.6636C55.5954 57.5093 55.0801 58.0297 54.758 58.2249L55.6599 58.6803C56.6262 59.2007 57.2704 59.2658 57.5925 59.2658C57.8502 59.2658 58.1723 59.2008 58.4944 59.0706H58.5588C58.5588 59.0706 58.6232 59.0706 58.6232 59.1357C58.6232 59.1357 58.6232 59.2007 58.5588 59.2007C58.3011 59.3309 57.7857 59.526 57.0771 59.526C56.3685 59.526 55.9175 59.3309 55.1445 58.8755L54.4359 58.4851ZM54.9512 56.8587C54.9512 55.7528 54.2426 55.1673 53.5984 55.1673C53.0186 55.1673 52.4388 55.5576 52.4388 56.6636C52.4388 57.7695 53.083 58.4201 53.8561 58.4201C54.307 58.4201 54.9512 58.2249 54.9512 56.8587Z" fill="white"/>
<path d="M56.4329 58.4851C56.3685 58.4201 56.3685 58.4201 56.3685 58.355C56.3685 58.0948 56.3685 57.8346 56.3685 57.7695C56.3685 57.7045 56.3685 57.6394 56.4329 57.6394C56.4973 57.6394 56.4973 57.7044 56.4973 57.7044C56.4973 57.7695 56.4973 57.8346 56.5617 57.9647C56.6906 58.29 56.9483 58.4201 57.2059 58.4201C57.6569 58.4201 57.8502 58.1598 57.8502 57.8996C57.8502 57.6394 57.7857 57.4442 57.3992 57.184L57.2059 56.9888C56.6906 56.5985 56.4973 56.2732 56.4973 55.8829C56.4973 55.3624 56.9483 54.9721 57.5925 54.9721C57.9146 54.9721 58.1078 55.0372 58.2367 55.0372C58.3011 55.0372 58.3011 55.0372 58.3011 55.1022C58.3011 55.1673 58.3011 55.2974 58.3011 55.6877C58.3011 55.8178 58.3011 55.8178 58.2367 55.8178C58.1723 55.8178 58.1723 55.8178 58.1723 55.7528C58.1723 55.6877 58.1723 55.5576 58.0434 55.4275C57.979 55.3624 57.8502 55.1673 57.5281 55.1673C57.2059 55.1673 56.9483 55.3624 56.9483 55.6227C56.9483 55.8178 57.0771 56.013 57.4636 56.2732L57.5925 56.4033C58.1723 56.8587 58.3655 57.1189 58.3655 57.5743C58.3655 57.8346 58.2367 58.1598 57.9146 58.4201C57.6569 58.5502 57.3992 58.6152 57.2059 58.6152C56.8194 58.6152 56.6262 58.6152 56.4329 58.4851Z" fill="white"/>
<path d="M58.6233 61.1524C58.6233 61.2175 57.1416 61.3476 55.2734 61.3476C53.4052 61.3476 51.9235 61.2825 51.9235 61.1524C51.9235 61.0874 53.4052 61.0223 55.2734 61.0223C57.1416 61.0223 58.6233 61.0874 58.6233 61.1524Z" fill="#808184"/>
<path d="M83.6186 58.2249L80.7841 57.1189V54.842C80.7841 54.5818 80.5264 54.3215 80.2687 54.3215H77.8851L76.79 51.1989L75.6304 54.3215H73.1824C72.9247 54.3215 72.667 54.5818 72.667 54.842V57.0539L69.8325 58.0948L72.667 59.2007V61.4777C72.667 61.7379 72.9247 61.9981 73.1824 61.9981H75.566L76.6611 65.1208L77.8207 61.9981H80.2687C80.5264 61.9981 80.7841 61.8029 80.7841 61.4777V59.2658L83.6186 58.2249Z" fill="#FAAE2D"/>
<path d="M75.8881 58.4851C75.6948 58.5502 75.4371 58.6152 75.1794 58.6152C73.8266 58.6152 73.3112 57.5744 73.3112 56.7286C73.3112 55.948 73.8266 54.9071 75.1794 54.9071C76.2746 54.9071 77.0477 55.5576 77.0477 56.6636C77.0477 57.5093 76.5323 58.0297 76.2102 58.2249L77.1121 58.6803C78.0784 59.2007 78.7226 59.2658 79.0447 59.2658C79.3024 59.2658 79.6245 59.2008 79.9466 59.0706H80.011C80.011 59.0706 80.0755 59.0706 80.0755 59.1357C80.0755 59.1357 80.0755 59.2007 80.011 59.2007C79.7533 59.3309 79.238 59.526 78.5293 59.526C77.8207 59.526 77.3053 59.3309 76.5967 58.8755L75.8881 58.4851ZM76.4034 56.8587C76.4034 55.7528 75.6948 55.1673 75.0506 55.1673C74.4708 55.1673 73.891 55.5576 73.891 56.6636C73.891 57.7695 74.5352 58.4201 75.3083 58.4201C75.7592 58.4201 76.4034 58.2249 76.4034 56.8587Z" fill="white"/>
<path d="M77.8851 58.4851C77.8207 58.4201 77.8207 58.4201 77.8207 58.355C77.8207 58.0948 77.8207 57.8346 77.8207 57.7695C77.8207 57.7045 77.8207 57.6394 77.8851 57.6394C77.9495 57.6394 77.9495 57.7044 77.9495 57.7044C77.9495 57.7695 77.9495 57.8346 78.014 57.9647C78.1428 58.29 78.4005 58.4201 78.6582 58.4201C79.0447 58.4201 79.3024 58.1598 79.3024 57.8996C79.3024 57.6394 79.238 57.4442 78.8514 57.184L78.6582 56.9888C78.1428 56.5985 77.9495 56.2732 77.9495 55.8829C77.9495 55.3624 78.4005 54.9721 79.0447 54.9721C79.3668 54.9721 79.5601 55.0372 79.6889 55.0372C79.7533 55.0372 79.7533 55.0372 79.7533 55.1022C79.7533 55.1673 79.7533 55.2974 79.7533 55.6877C79.7533 55.8178 79.7533 55.8178 79.6889 55.8178C79.6889 55.8178 79.6245 55.8178 79.6245 55.7528C79.6245 55.6877 79.6245 55.5576 79.4956 55.4275C79.4312 55.3624 79.3024 55.1673 78.9803 55.1673C78.6582 55.1673 78.4005 55.3624 78.4005 55.6227C78.4005 55.8178 78.5293 56.013 78.9159 56.2732L79.0447 56.4033C79.6245 56.8587 79.8177 57.1189 79.8177 57.5743C79.8177 57.8346 79.6889 58.1598 79.3668 58.4201C79.1091 58.5502 78.8514 58.6152 78.6582 58.6152C78.2716 58.6152 78.0784 58.6152 77.8851 58.4851Z" fill="white"/>
<path d="M80.0755 61.1524C80.0755 61.2175 78.5938 61.3476 76.7256 61.3476C74.8574 61.3476 73.3757 61.2825 73.3757 61.1524C73.3757 61.0874 74.8574 61.0223 76.7256 61.0223C78.5938 61.0223 80.0755 61.0874 80.0755 61.1524Z" fill="#808184"/>
<path d="M113.317 0.260223H112.544V2.2119H112.222V0.260223H111.449V0H113.317V0.260223Z" fill="#231F20"/>
<path d="M115.7 2.2119H115.378V0.520446L114.67 1.36617H114.605L113.961 0.520446H113.897V2.2119H113.639V0H113.897L114.67 0.91078L115.378 0H115.7V2.2119Z" fill="#231F20"/>
<path d="M49.411 47.2956H45.3524V46.5799C45.6745 46.2547 45.9966 45.9944 46.2543 45.7342C46.512 45.474 46.7697 45.2788 47.0274 45.0186C47.2206 44.8234 47.4139 44.6283 47.6072 44.4331C47.8004 44.2379 47.9293 44.0428 47.9937 43.8476C48.1225 43.6524 48.187 43.3922 48.2514 43.132C48.3158 42.8718 48.3158 42.5465 48.3158 42.2863C48.3158 41.8309 48.187 41.5056 47.9937 41.3104C47.8004 41.1153 47.4783 40.9851 47.0274 40.9851C46.8985 40.9851 46.8341 40.9851 46.7053 40.9851C46.5764 40.9851 46.512 41.0502 46.4476 41.0502C46.3832 41.0502 46.2543 41.1153 46.1899 41.1153C46.1255 41.1153 46.0611 41.1803 45.9966 41.1803L45.8034 42.026H45.4813V40.7249C45.739 40.6599 45.9966 40.5948 46.1899 40.5948C46.4476 40.5298 46.7053 40.5298 46.963 40.5298C47.6716 40.5298 48.2514 40.6599 48.5735 40.9851C48.96 41.3104 49.0889 41.7008 49.0889 42.2863C49.0889 42.5465 49.0244 42.8067 48.96 43.0669C48.8956 43.3272 48.7668 43.5223 48.6379 43.7175C48.5091 43.9127 48.3158 44.1729 48.187 44.368C47.9937 44.5632 47.8004 44.8234 47.5428 45.0186C47.2851 45.2138 47.0274 45.474 46.7697 45.7342C46.4476 45.9944 46.1899 46.2547 45.8678 46.5799H49.2821V47.2956H49.411Z" fill="#231F20"/>
<path d="M64.3567 47.2956H60.2982V46.5799C60.6203 46.2547 60.9424 45.9944 61.2001 45.7342C61.4578 45.474 61.7155 45.2788 61.9731 45.0186C62.1664 44.8234 62.3597 44.6283 62.5529 44.4331C62.7462 44.2379 62.875 44.0428 62.9395 43.8476C63.0683 43.6524 63.1327 43.3922 63.1971 43.132C63.2616 42.8718 63.2616 42.6115 63.2616 42.2863C63.2616 41.8309 63.1327 41.5056 62.9395 41.3104C62.7462 41.1153 62.4241 40.9851 61.9731 40.9851C61.8443 40.9851 61.7799 40.9851 61.651 40.9851C61.5222 40.9851 61.4578 41.0502 61.3933 41.0502C61.3289 41.0502 61.2001 41.1153 61.1357 41.1153C61.0712 41.1153 61.0068 41.1803 60.9424 41.1803L60.7491 42.026H60.5559V40.7249C60.8136 40.6599 61.0712 40.5948 61.2645 40.5948C61.5222 40.5298 61.7799 40.5298 62.0376 40.5298C62.7462 40.5298 63.326 40.6599 63.6481 40.9851C64.0346 41.3104 64.1635 41.7008 64.1635 42.2863C64.1635 42.5465 64.099 42.8067 64.0346 43.0669C63.9702 43.3272 63.8414 43.5223 63.7125 43.7175C63.5837 43.9127 63.3904 44.1729 63.2616 44.368C63.0683 44.5632 62.875 44.8234 62.6173 45.0186C62.3597 45.2138 62.102 45.474 61.8443 45.7342C61.5222 45.9944 61.2645 46.2547 60.9424 46.5799H64.3567V47.2956V47.2956Z" fill="#231F20"/>
<path d="M54.6291 43.9126C54.6291 44.4981 54.5647 44.9535 54.5003 45.4089C54.4359 45.8643 54.307 46.1896 54.1138 46.5148C53.9205 46.8401 53.7272 47.0353 53.4051 47.1654C53.1475 47.2955 52.8254 47.3606 52.4388 47.3606C51.7302 47.3606 51.2148 47.0353 50.8283 46.4498C50.5062 45.8643 50.3129 45.0186 50.3129 43.8476C50.3129 42.7416 50.5062 41.8959 50.8283 41.3104C51.2148 40.7249 51.7302 40.3996 52.4388 40.3996C53.1475 40.3996 53.6628 40.6598 54.0494 41.2453C54.4359 41.9609 54.6291 42.8067 54.6291 43.9126ZM53.7272 43.9126C53.7272 43.4572 53.7273 43.0018 53.6628 42.6115C53.5984 42.2212 53.534 41.8959 53.4696 41.6357C53.3407 41.3754 53.2119 41.1803 53.083 41.0502C52.8898 40.92 52.6965 40.855 52.5032 40.855C52.2456 40.855 52.0523 40.92 51.9235 41.0502C51.7946 41.1803 51.6658 41.3754 51.5369 41.6357C51.4725 41.8959 51.4081 42.2212 51.3437 42.6115C51.2792 43.0018 51.2792 43.3922 51.2792 43.9126C51.2792 44.368 51.2792 44.8234 51.3437 45.2137C51.4081 45.6041 51.4081 45.9293 51.5369 46.1896C51.6014 46.4498 51.7302 46.645 51.9235 46.7751C52.0523 46.9052 52.31 46.9702 52.5032 46.9702C52.7609 46.9702 52.9542 46.9052 53.083 46.7751C53.2763 46.645 53.4051 46.4498 53.4696 46.1896C53.534 45.9293 53.6628 45.6041 53.6628 45.2137C53.7273 44.8234 53.7272 44.368 53.7272 43.9126Z" fill="#231F20"/>
<path d="M58.1079 46.9052L59.4608 47.0353V47.2956H55.9176V47.0353L57.2704 46.9052V41.4405L55.9176 41.8959V41.6357L57.8502 40.5298H58.1079V46.9052Z" fill="#231F20"/>
<path d="M128.971 66.6822V63.8848H130.324V55.4275H129.229L128.52 57.6394H126.33V52.6952H137.99V57.6394H135.735L135.091 55.4275H133.931V63.8848H135.349V66.6822H128.971Z" fill="#F27125"/>
<path d="M138.763 66.6822V63.8848H140.18V55.4926H138.763V52.6952H147.331C148.04 52.6952 148.684 52.8253 149.199 53.1506C149.715 53.4759 150.166 53.8662 150.488 54.4517C150.81 54.9721 150.939 55.6227 150.939 56.3383C150.939 56.7286 150.874 57.0539 150.81 57.3792C150.745 57.7045 150.552 57.9647 150.359 58.2249C150.166 58.4852 149.908 58.7454 149.65 58.9405C149.393 59.1357 149.006 59.3309 148.62 59.461C149.264 59.6562 149.715 59.9164 149.972 60.1766C150.23 60.4368 150.359 60.8922 150.359 61.4777V63.8848H151.583V66.6822H146.751V63.4294C146.751 62.7138 146.687 62.1933 146.622 61.803C146.558 61.4777 146.365 61.1524 146.107 61.0223C145.849 60.8272 145.398 60.7621 144.819 60.7621H143.724V63.8848H144.819V66.6822H138.763V66.6822ZM143.788 55.4926V58.4201H145.205C145.849 58.4201 146.3 58.29 146.622 58.0298C146.945 57.7695 147.073 57.4443 147.073 56.9238C147.073 56.4034 146.945 56.0781 146.622 55.8179C146.3 55.5576 145.849 55.4275 145.141 55.4275H143.788V55.4926Z" fill="#F27125"/>
<path d="M153.387 61.803V55.4275H151.969V52.6952H158.412V55.4926H156.93V61.3476C156.93 62.0632 157.123 62.6487 157.51 63.0391C157.896 63.4294 158.412 63.6246 159.12 63.6246C159.829 63.6246 160.344 63.4294 160.731 63.0391C161.117 62.6487 161.31 62.1283 161.31 61.3476V55.4926H159.893V52.6952H164.918V55.0372C165.24 55.0372 165.562 54.9071 165.82 54.7119C166.078 54.5168 166.207 54.3216 166.207 54.1264H165.82V52.6952H167.237V54.3866C167.173 54.842 166.851 55.1673 166.335 55.4275C165.82 55.6878 165.369 55.8179 164.918 55.8179V61.803C164.918 62.5837 164.789 63.2993 164.532 63.9498C164.274 64.6004 163.887 65.1208 163.372 65.5762C162.857 66.0316 162.277 66.3569 161.568 66.6171C160.86 66.8773 160.086 66.9424 159.185 66.9424C158.283 66.9424 157.51 66.8123 156.801 66.6171C156.092 66.3569 155.513 66.0316 154.997 65.5762C154.482 65.1208 154.095 64.6004 153.838 63.9498C153.516 63.2993 153.387 62.5837 153.387 61.803Z" fill="#F27125"/>
<path d="M166.915 59.6561C166.915 58.9405 166.98 58.2249 167.173 57.5744C167.366 56.9238 167.624 56.2732 168.01 55.6877C168.397 55.1022 168.848 54.5818 169.363 54.1264C169.814 53.7361 170.265 53.4108 170.78 53.1506C171.296 52.8903 171.876 52.6952 172.455 52.5651C173.035 52.435 173.615 52.3699 174.324 52.3699C175.161 52.3699 175.934 52.5 176.643 52.6952C177.351 52.8904 177.996 53.2156 178.511 53.606C179.091 53.9963 179.542 54.4517 179.993 54.9721C180.379 54.9071 180.637 54.777 180.83 54.5167C181.023 54.2565 181.152 53.9963 181.152 53.8011H180.766V52.435H182.183V54.1264C182.119 54.5818 181.925 54.9071 181.474 55.1673C181.088 55.4275 180.701 55.5576 180.379 55.5576C181.217 56.7937 181.668 58.1599 181.668 59.7212C181.668 61.9331 180.83 63.7547 179.22 65.1859C177.867 66.3569 176.256 66.9424 174.324 66.9424C172.391 66.9424 170.78 66.3569 169.428 65.1859C168.912 64.7305 168.461 64.2101 168.075 63.6245C167.688 63.039 167.431 62.4535 167.237 61.803C167.044 61.0874 166.915 60.3718 166.915 59.6561ZM170.78 59.6561C170.78 60.3718 170.909 61.0874 171.231 61.6729C171.554 62.2584 172.004 62.7138 172.52 63.039C173.1 63.3643 173.679 63.5595 174.324 63.5595C174.968 63.5595 175.612 63.3643 176.127 63.039C176.643 62.7138 177.094 62.2584 177.416 61.6729C177.738 61.0874 177.867 60.4368 177.867 59.6561C177.867 58.9405 177.738 58.2249 177.416 57.6394C177.094 57.0539 176.643 56.5985 176.127 56.2732C175.548 55.948 174.968 55.7528 174.324 55.7528C173.679 55.7528 173.035 55.948 172.52 56.2732C172.004 56.5985 171.554 57.0539 171.231 57.6394C170.909 58.29 170.78 58.9405 170.78 59.6561ZM172.391 48.7918H174.259L175.548 51.264H174.517L172.391 48.7918Z" fill="#F27125"/>
<path d="M182.634 66.6822V63.8848H184.051V55.4926H182.634V52.6952H187.594L192.168 60.3718L192.104 55.4926H190.622V52.6952H196.935V55.4926H195.583V66.6822H192.555L187.465 58.2249L187.53 63.8848H189.012V66.6822H182.634Z" fill="#F27125"/>
<path d="M207.951 61.5428H206.212V58.9405H213.234V61.5428H212.01V66.6171H208.982V64.7955C207.887 66.2268 206.405 66.8773 204.601 66.8773C204.022 66.8773 203.442 66.8123 202.927 66.6822C202.347 66.5521 201.831 66.3569 201.316 66.0967C200.801 65.8364 200.35 65.5112 200.028 65.1859C199.255 64.4703 198.675 63.6245 198.224 62.7138C197.837 61.7379 197.58 60.7621 197.58 59.7212C197.58 59.0056 197.644 58.29 197.837 57.6394C198.031 56.9889 198.288 56.3383 198.675 55.7528C199.061 55.1673 199.512 54.6468 200.028 54.1915C200.672 53.671 201.38 53.2156 202.153 52.9554C202.927 52.6301 203.764 52.5 204.666 52.5C206.148 52.5 207.243 52.9554 208.08 53.8011V52.6952H211.301V57.5744H207.823C207.307 56.4033 206.405 55.7528 204.988 55.7528C204.473 55.7528 203.957 55.8178 203.571 56.013C203.12 56.2082 202.733 56.4684 202.411 56.7937C202.089 57.119 201.831 57.5744 201.638 58.0297C201.445 58.5502 201.38 59.0706 201.38 59.5911C201.38 60.1766 201.445 60.697 201.638 61.1524C201.831 61.6078 202.025 62.0632 202.347 62.3885C202.669 62.7138 203.055 62.974 203.506 63.1692C203.957 63.3643 204.408 63.4294 204.988 63.4294C205.632 63.4294 206.212 63.2342 206.727 62.9089C207.307 62.7138 207.694 62.1933 207.951 61.5428Z" fill="#F27125"/>
<path d="M219.096 66.6822V63.8848H220.513V60.7621H218.71V58.1599H220.513V55.5576H219.096V52.6952H225.667C226.633 52.6952 227.471 52.7602 228.115 52.8904C228.824 53.0205 229.339 53.1506 229.79 53.4108C231.014 54.0614 231.916 54.9071 232.496 55.948C233.076 56.9889 233.333 58.2249 233.333 59.7212C233.333 60.6971 233.204 61.6078 232.947 62.3885C232.689 63.1692 232.303 63.8848 231.787 64.4703C231.272 65.0558 230.563 65.5762 229.79 66.0316C229.339 66.2268 228.824 66.422 228.115 66.5521C227.407 66.6822 226.569 66.7472 225.667 66.7472H219.096V66.6822ZM224.186 55.4926V58.0948H226.891V60.6971H224.186V63.8197H225.281C226.183 63.8197 227.02 63.6896 227.664 63.3643C228.308 63.0391 228.824 62.5837 229.146 61.9331C229.468 61.2826 229.661 60.5669 229.661 59.6562C229.661 58.7454 229.468 57.9647 229.146 57.3141C228.824 56.6636 228.308 56.2082 227.664 55.8829C227.02 55.5576 226.183 55.4275 225.281 55.4275H224.186V55.4926Z" fill="#F27125"/>
<path d="M233.913 66.6822V63.8848H235.073L237.649 55.4926H236.297V52.6952H246.024V55.4926H244.671L247.248 63.8848H248.408V66.6822H242.352V63.8848H243.576L242.996 61.9982H239.196L238.68 63.8848H239.904V66.6822H233.913ZM239.84 59.526H242.545L241.193 55.1023L239.84 59.526ZM240.162 67.8532H242.03V69.7398H240.162V67.8532Z" fill="#F27125"/>
<path d="M248.923 66.6822V63.8848H250.341V55.4926H248.923V52.6952H255.365V55.4926H253.948V63.8848H255.365V66.6822H248.923Z" fill="#F27125"/>
<path d="M261.614 66.6822V63.8848H263.031V55.4926H261.614V52.6952H268.056V55.4926H266.639V58.0298H270.698V55.4926H269.216V52.6952H275.722V55.4926H274.305V63.8848H275.722V66.6822H269.216V63.8848H270.698V60.8272H266.639V63.8848H268.056V66.6822H261.614Z" fill="#F27125"/>
<path d="M276.624 59.6561C276.624 58.9405 276.689 58.2249 276.882 57.5744C277.075 56.9238 277.333 56.2732 277.719 55.6877C278.106 55.1022 278.557 54.5818 279.072 54.1264C279.523 53.7361 279.974 53.4108 280.49 53.1506C281.005 52.8903 281.585 52.6952 282.165 52.5651C282.744 52.435 283.324 52.3699 284.033 52.3699C284.999 52.3699 285.901 52.5 286.738 52.8253C287.576 53.1506 288.285 53.5409 288.929 54.1264C290.604 55.6227 291.377 57.4443 291.377 59.5911C291.377 61.7379 290.539 63.6245 288.929 65.0558C287.576 66.2268 285.965 66.8123 284.033 66.8123C282.1 66.8123 280.49 66.2268 279.137 65.0558C278.621 64.6004 278.17 64.0799 277.784 63.4944C277.397 62.9089 277.14 62.3234 276.946 61.6729C276.753 61.0874 276.624 60.3718 276.624 59.6561ZM280.425 59.6561C280.425 60.3718 280.554 61.0874 280.876 61.6729C281.198 62.2584 281.649 62.7138 282.165 63.039C282.744 63.3643 283.324 63.5595 283.968 63.5595C284.613 63.5595 285.257 63.3643 285.772 63.039C286.287 62.7138 286.738 62.2584 287.061 61.6729C287.383 61.0874 287.511 60.4368 287.511 59.6561C287.511 58.9405 287.383 58.2249 287.061 57.6394C286.738 57.0539 286.287 56.5985 285.772 56.2732C285.192 55.948 284.613 55.7528 283.968 55.7528C283.324 55.7528 282.68 55.948 282.165 56.2732C281.585 56.5985 281.198 57.0539 280.876 57.6394C280.618 58.29 280.425 58.9405 280.425 59.6561ZM283.002 68.1134H284.87V70H283.002V68.1134Z" fill="#F27125"/>
<path d="M303.101 61.5427H306.967C306.645 62.6487 306.129 63.6245 305.421 64.4052C304.712 65.1859 303.874 65.8364 302.908 66.2918C301.942 66.7472 300.847 66.9424 299.752 66.9424C297.819 66.9424 296.208 66.3569 294.856 65.1859C294.34 64.7305 293.889 64.21 293.503 63.6245C293.116 63.039 292.858 62.4535 292.665 61.803C292.472 61.1524 292.408 60.4368 292.408 59.7212C292.408 58.6152 292.601 57.6394 293.052 56.7286C293.438 55.8178 294.082 54.9721 294.92 54.2565C296.273 53.0855 297.883 52.5 299.816 52.5C300.589 52.5 301.298 52.6301 301.942 52.8903C302.586 53.1506 303.166 53.5409 303.617 53.9963V52.6952H306.838V58.0948H303.359C303.101 57.3141 302.65 56.7937 302.071 56.4033C301.491 56.013 300.782 55.8178 300.009 55.8178C299.301 55.8178 298.656 56.013 298.077 56.3383C297.497 56.6636 297.046 57.119 296.724 57.7045C296.402 58.29 296.273 58.9405 296.273 59.7212C296.273 60.4368 296.402 61.1524 296.724 61.7379C297.046 62.3234 297.497 62.7788 298.012 63.1041C298.592 63.4294 299.172 63.6245 299.816 63.6245C301.233 63.5595 302.393 62.9089 303.101 61.5427Z" fill="#F27125"/>
<path d="M312.893 66.6822V63.8848H314.311V55.4926H312.893V52.6952H325.133V57.7695H322.685L321.848 55.4926H317.918V57.7695H320.495V60.8272H317.918V63.8848H319.786V66.6822H312.893Z" fill="#F27125"/>
<path d="M325.906 66.6822V63.8848H327.324V55.4926H325.906V52.6952H332.993C333.959 52.6952 334.797 52.8904 335.505 53.2156C336.214 53.606 336.729 54.1264 337.116 54.777C337.502 55.4275 337.696 56.2082 337.696 57.119C337.696 57.7695 337.567 58.355 337.373 58.9405C337.18 59.461 336.858 59.9814 336.472 60.3718C336.085 60.7621 335.57 61.0874 334.99 61.2826C334.41 61.4777 333.766 61.6078 333.057 61.6078H330.996V63.9498H332.477V66.7472H325.906V66.6822ZM330.867 55.4926V58.9405H331.833C333.315 58.9405 334.024 58.355 334.024 57.184C334.024 56.013 333.315 55.4926 331.833 55.4926H330.867Z" fill="#F27125"/>
<path d="M340.981 66.6822V63.8848H342.398V55.4275H341.303L340.595 57.6394H338.34V52.6952H350V57.6394H347.81L347.101 55.4275H346.006V63.8848H347.359V66.6822H340.981Z" fill="#F27125"/>
<path d="M227.858 7.02606C224.572 7.02606 221.802 9.1729 220.642 12.2305C220.578 12.3606 220.385 13.0112 220.385 13.0112L215.811 32.9183H226.247C229.855 32.9183 232.882 30.316 233.72 26.803L238.229 7.02606H227.858V7.02606Z" fill="#0DB04B"/>
<path d="M210.464 1.30112C206.985 1.30112 204.022 3.70818 203.12 6.96097C203.055 7.22119 202.991 7.48141 202.927 7.67658L195.84 38.6431H206.277C209.884 38.6431 212.847 36.171 213.685 32.7881L220.9 1.30112H210.464Z" fill="#F26F21"/>
<path d="M190.429 7.02606C187.014 7.02606 184.18 9.36807 183.085 12.5558C183.085 12.6209 183.02 12.6859 183.02 12.751L182.827 13.4666L178.446 32.9183H189.14C192.361 32.9183 195.067 30.7714 196.162 27.7789L196.613 25.9573L200.929 7.02606H190.429V7.02606Z" fill="#0066B2"/>
<path d="M188.496 13.5316H188.303C187.53 13.5316 186.886 13.7918 186.242 14.3123C185.597 14.8327 185.211 15.4182 185.082 15.9387L182.698 26.4127H182.827C183.6 26.4127 184.309 26.1524 184.953 25.632C185.597 25.1115 186.048 24.461 186.177 23.6803L186.692 21.4034H191.46C192.233 21.4034 192.941 21.1431 193.586 20.6227C194.23 20.1022 194.616 19.4517 194.81 18.671V18.5409H187.337L187.852 16.3941H194.294C195.067 16.3941 195.711 16.1338 196.356 15.6134C197 15.093 197.386 14.4424 197.58 13.6617L197.644 13.5316H188.496Z" fill="white"/>
<path d="M214.909 14.1171C214.522 13.7267 213.943 13.4665 213.298 13.4665H204.151L201.187 26.4126H201.316C202.089 26.4126 202.798 26.1524 203.442 25.632C204.086 25.1115 204.537 24.4609 204.666 23.6803L205.181 21.4033H211.495C212.268 21.4033 212.912 21.3383 213.556 20.8178C214.2 20.2974 214.651 19.4517 214.844 18.671L215.424 16.2639C215.489 16.0688 215.489 15.8736 215.489 15.6784C215.553 15.0929 215.295 14.5725 214.909 14.1171ZM212.074 18.5409H205.89L206.405 16.394H212.59L212.074 18.5409Z" fill="white"/>
<path d="M233.462 14.1822C233.076 13.7918 232.496 13.5316 231.852 13.5316H227.858H227.6H222.253V13.5967C222.188 13.7918 222.188 13.987 222.188 14.1822C222.188 14.8327 222.382 15.3532 222.768 15.7435C223.155 16.1338 223.735 16.3941 224.379 16.3941H226.376L224.057 26.4777H224.186C224.959 26.4777 225.667 26.2175 226.311 25.697C226.956 25.1766 227.407 24.526 227.535 23.7454L229.21 16.3941H233.978V16.329C234.042 16.1338 234.042 15.9387 234.042 15.7435C234.106 15.093 233.913 14.5725 233.462 14.1822Z" fill="white"/>
<path d="M235.395 30.7063C235.395 29.4703 236.361 28.4944 237.585 28.4944C238.809 28.4944 239.775 29.4703 239.775 30.7063C239.775 31.9424 238.809 32.9182 237.585 32.9182C236.361 32.9182 235.395 31.9424 235.395 30.7063ZM239.26 30.7063C239.26 29.6655 238.487 28.8848 237.585 28.8848C236.683 28.8848 235.91 29.6655 235.91 30.7063C235.91 31.7472 236.683 32.5279 237.585 32.5279C238.487 32.5279 239.26 31.7472 239.26 30.7063ZM236.748 29.4052H237.65C238.229 29.4052 238.551 29.6004 238.551 30.1208C238.551 30.5762 238.294 30.7714 237.907 30.7714L238.551 31.8773H238.101L237.456 30.7714H237.199V31.8773H236.748V29.4052ZM237.199 30.5112H237.585C237.843 30.5112 238.101 30.4461 238.101 30.1208C238.101 29.7956 237.843 29.7956 237.585 29.7956H237.199V30.5112Z" fill="#0066B2"/>
<path d="M244.671 26.4126V16.4591H249.89V17.7602H246.218V20.6877H249.567V21.9888H246.218V25.1115H249.89V26.4126H244.671Z" fill="#0066B2"/>
<path d="M256.718 26.0223C256.074 26.3476 255.236 26.5427 254.206 26.5427C253.046 26.5427 252.209 26.2175 251.564 25.5018C250.92 24.8513 250.598 23.8755 250.598 22.7044C250.598 21.5334 250.92 20.6227 251.5 19.9071C252.08 19.1914 252.982 18.8011 254.077 18.8011C254.528 18.8011 254.914 18.8662 255.236 18.9963V15.6134H256.718V26.0223ZM255.236 20.2323C254.979 20.1022 254.657 20.0372 254.206 20.0372C253.562 20.0372 253.046 20.2974 252.66 20.8178C252.338 21.2732 252.144 21.9238 252.144 22.7695C252.144 23.6152 252.338 24.2007 252.66 24.6561C253.046 25.1115 253.497 25.3717 254.206 25.3717C254.657 25.3717 255.043 25.3067 255.236 25.1766V20.2323Z" fill="#0066B2"/>
<path d="M263.805 26.0223C263.096 26.3476 262.194 26.5427 261.034 26.5427C259.037 26.5427 258.071 25.632 258.071 23.8755V18.9963H259.553V23.9405C259.553 24.8513 260.068 25.3717 261.034 25.3717C261.614 25.3717 262.065 25.3067 262.323 25.1766V19.0613H263.805V26.0223Z" fill="#0066B2"/>
<path d="M269.925 26.0873C269.409 26.4126 268.765 26.6078 268.056 26.6078C267.154 26.6078 266.446 26.2825 265.802 25.697C265.157 24.9814 264.771 24.0056 264.771 22.7695C264.771 21.5334 265.093 20.5576 265.802 19.842C266.381 19.2565 267.154 18.9312 268.056 18.9312C268.829 18.9312 269.409 19.1264 269.925 19.4517L269.409 20.5576C269.087 20.2974 268.701 20.1673 268.185 20.1673C267.67 20.1673 267.219 20.3624 266.897 20.8178C266.51 21.2732 266.317 21.9238 266.317 22.8346C266.317 23.6803 266.51 24.3308 266.897 24.7862C267.219 25.2416 267.67 25.4368 268.185 25.4368C268.636 25.4368 269.087 25.3067 269.409 25.0465L269.925 26.0873Z" fill="#0066B2"/>
<path d="M276.302 26.0223C275.658 26.3476 274.756 26.5428 273.661 26.5428C271.535 26.5428 270.504 25.7621 270.504 24.2008C270.504 23.29 270.955 22.5744 271.857 22.184C272.501 21.8587 273.532 21.7286 274.885 21.6636V21.2082C274.885 20.3625 274.37 19.9721 273.339 19.9721C272.63 19.9721 271.922 20.1022 271.277 20.4275L270.891 19.3866C271.664 19.0613 272.501 18.8662 273.468 18.8662C275.336 18.8662 276.302 19.7119 276.302 21.4034V26.0223ZM274.885 22.7045C273.919 22.7695 273.21 22.8346 272.824 23.0297C272.179 23.29 271.857 23.6803 271.857 24.2658C271.857 25.1115 272.437 25.5019 273.597 25.5019C274.176 25.5019 274.563 25.4368 274.885 25.3067V22.7045Z" fill="#0066B2"/>
<path d="M281.069 26.3476C280.812 26.4777 280.554 26.5427 280.168 26.5427C278.815 26.5427 278.17 25.8271 278.17 24.3959V20.1673H277.204V19.0613H278.17V17.3699L279.652 16.9145V19.0613H281.134V20.1673H279.652V24.3308C279.652 24.9814 279.974 25.2416 280.618 25.2416C280.812 25.2416 281.005 25.2416 281.134 25.1766V26.3476H281.069Z" fill="#0066B2"/>
<path d="M283.324 17.3699C283.131 17.5651 282.938 17.6301 282.68 17.6301C282.422 17.6301 282.229 17.5651 282.036 17.3699C281.842 17.1747 281.778 16.9796 281.778 16.7844C281.778 16.5892 281.842 16.329 282.036 16.1989C282.229 16.0037 282.422 15.9387 282.68 15.9387C282.938 15.9387 283.131 16.0037 283.324 16.1989C283.517 16.394 283.582 16.5892 283.582 16.7844C283.582 16.9796 283.517 17.2398 283.324 17.3699ZM281.971 18.9963H283.453V26.4126H281.971V18.9963Z" fill="#0066B2"/>
<path d="M290.153 25.4368C289.573 26.1524 288.8 26.5428 287.769 26.5428C286.738 26.5428 285.965 26.1524 285.386 25.4368C284.806 24.7212 284.548 23.8104 284.548 22.7045C284.548 21.5335 284.806 20.6227 285.386 19.9721C285.965 19.2565 286.738 18.8662 287.769 18.8662C288.8 18.8662 289.573 19.2565 290.153 19.9721C290.733 20.6877 290.99 21.5985 290.99 22.7045C290.99 23.8104 290.733 24.7863 290.153 25.4368ZM289.058 20.7528C288.736 20.2974 288.349 20.0372 287.769 20.0372C287.189 20.0372 286.803 20.2974 286.481 20.7528C286.159 21.2082 286.03 21.8587 286.03 22.7045C286.03 23.5502 286.159 24.1357 286.481 24.6561C286.803 25.1115 287.189 25.3718 287.769 25.3718C288.349 25.3718 288.736 25.1115 289.058 24.6561C289.38 24.2008 289.509 23.5502 289.509 22.7045C289.509 21.8587 289.38 21.2082 289.058 20.7528Z" fill="#0066B2"/>
<path d="M296.402 26.4127V21.4684C296.402 20.5576 295.886 20.0372 294.856 20.0372C294.34 20.0372 293.889 20.1022 293.503 20.2324V26.3476H292.021V19.3866C292.858 19.0613 293.825 18.8662 294.856 18.8662C296.917 18.8662 297.883 19.7119 297.883 21.3383V26.4127H296.402V26.4127Z" fill="#0066B2"/>
</svg>
